G04 #@! TF.GenerationSoftware,KiCad,Pcbnew,(5.1.2)-2*
G04 #@! TF.CreationDate,2021-03-05T16:19:09+01:00*
G04 #@! TF.ProjectId,Shield,53686965-6c64-42e6-9b69-6361645f7063,rev?*
G04 #@! TF.SameCoordinates,Original*
G04 #@! TF.FileFunction,Legend,Top*
G04 #@! TF.FilePolarity,Positive*
%FSLAX46Y46*%
G04 Gerber Fmt 4.6, Leading zero omitted, Abs format (unit mm)*
G04 Created by KiCad (PCBNEW (5.1.2)-2) date 2021-03-05 16:19:09*
%MOMM*%
%LPD*%
G04 APERTURE LIST*
%ADD10C,0.150000*%
%ADD11C,0.120000*%
G04 APERTURE END LIST*
D10*
X139390380Y-120999285D02*
X139390380Y-121570714D01*
X139390380Y-121285000D02*
X138390380Y-121285000D01*
X138533238Y-121380238D01*
X138628476Y-121475476D01*
X138676095Y-121570714D01*
D11*
X129538000Y-114365000D02*
X130228000Y-114365000D01*
X134958000Y-114365000D02*
X134268000Y-114365000D01*
X130228000Y-115785000D02*
X134268000Y-115785000D01*
X130228000Y-112945000D02*
X130228000Y-115785000D01*
X134268000Y-112945000D02*
X130228000Y-112945000D01*
X134268000Y-115785000D02*
X134268000Y-112945000D01*
X158808000Y-83865000D02*
X158808000Y-80865000D01*
X161578000Y-80865000D02*
X161578000Y-83865000D01*
X148418000Y-80865000D02*
X161578000Y-80865000D01*
X148418000Y-83865000D02*
X148418000Y-80865000D01*
X161578000Y-83865000D02*
X148418000Y-83865000D01*
X162378000Y-107445000D02*
X158538000Y-107445000D01*
X162378000Y-109285000D02*
X158538000Y-109285000D01*
X115918000Y-98825000D02*
X115918000Y-94985000D01*
X114078000Y-98825000D02*
X114078000Y-94985000D01*
X145918000Y-107745000D02*
X145918000Y-103905000D01*
X144078000Y-107745000D02*
X144078000Y-103905000D01*
X162378000Y-102445000D02*
X158538000Y-102445000D01*
X162378000Y-104285000D02*
X158538000Y-104285000D01*
X120078000Y-104985000D02*
X120078000Y-108825000D01*
X121918000Y-104985000D02*
X121918000Y-108825000D01*
X172538000Y-114865000D02*
X172538000Y-111865000D01*
X175308000Y-111865000D02*
X175308000Y-114865000D01*
X164688000Y-111865000D02*
X175308000Y-111865000D01*
X164688000Y-114865000D02*
X164688000Y-111865000D01*
X175308000Y-114865000D02*
X164688000Y-114865000D01*
X131244667Y-100055000D02*
X127738000Y-100055000D01*
X131244667Y-100415000D02*
X131244667Y-100055000D01*
X134751333Y-100415000D02*
X131244667Y-100415000D01*
X134751333Y-100055000D02*
X134751333Y-100415000D01*
X138258000Y-100055000D02*
X134751333Y-100055000D01*
X138258000Y-110675000D02*
X138258000Y-100055000D01*
X127738000Y-110675000D02*
X138258000Y-110675000D01*
X127738000Y-100055000D02*
X127738000Y-110675000D01*
X149878000Y-102245000D02*
X156118000Y-102245000D01*
X149878000Y-109485000D02*
X156118000Y-109485000D01*
X156118000Y-109485000D02*
X156118000Y-102245000D01*
X149878000Y-109485000D02*
X149878000Y-102245000D01*
X167998000Y-102905000D02*
X167998000Y-103595000D01*
X167998000Y-108325000D02*
X167998000Y-107635000D01*
X166578000Y-103595000D02*
X166578000Y-107635000D01*
X169418000Y-103595000D02*
X166578000Y-103595000D01*
X169418000Y-107635000D02*
X169418000Y-103595000D01*
X166578000Y-107635000D02*
X169418000Y-107635000D01*
X114998000Y-109825000D02*
X114998000Y-109135000D01*
X114998000Y-104405000D02*
X114998000Y-105095000D01*
X116418000Y-109135000D02*
X116418000Y-105095000D01*
X113578000Y-109135000D02*
X116418000Y-109135000D01*
X113578000Y-105095000D02*
X113578000Y-109135000D01*
X116418000Y-105095000D02*
X113578000Y-105095000D01*
X116498000Y-89365000D02*
X113498000Y-89365000D01*
X113498000Y-86595000D02*
X116498000Y-86595000D01*
X113498000Y-92135000D02*
X113498000Y-86595000D01*
X116498000Y-92135000D02*
X113498000Y-92135000D01*
X116498000Y-86595000D02*
X116498000Y-92135000D01*
X137538000Y-84865000D02*
X137538000Y-81865000D01*
X140308000Y-81865000D02*
X140308000Y-84865000D01*
X129688000Y-81865000D02*
X140308000Y-81865000D01*
X129688000Y-84865000D02*
X129688000Y-81865000D01*
X140308000Y-84865000D02*
X129688000Y-84865000D01*
D10*
X140208000Y-125095000D02*
X157988000Y-125095000D01*
X157988000Y-125095000D02*
X157988000Y-122555000D01*
X157988000Y-122555000D02*
X140208000Y-122555000D01*
X137388000Y-125375000D02*
X138938000Y-125375000D01*
X140208000Y-125095000D02*
X140208000Y-122555000D01*
X138938000Y-122275000D02*
X137388000Y-122275000D01*
X137388000Y-122275000D02*
X137388000Y-125375000D01*
X163068000Y-125095000D02*
X175768000Y-125095000D01*
X175768000Y-125095000D02*
X175768000Y-122555000D01*
X175768000Y-122555000D02*
X163068000Y-122555000D01*
X160248000Y-125375000D02*
X161798000Y-125375000D01*
X163068000Y-125095000D02*
X163068000Y-122555000D01*
X161798000Y-122275000D02*
X160248000Y-122275000D01*
X160248000Y-122275000D02*
X160248000Y-125375000D01*
X131064000Y-76835000D02*
X153924000Y-76835000D01*
X153924000Y-76835000D02*
X153924000Y-74295000D01*
X153924000Y-74295000D02*
X131064000Y-74295000D01*
X128244000Y-77115000D02*
X129794000Y-77115000D01*
X131064000Y-76835000D02*
X131064000Y-74295000D01*
X129794000Y-74015000D02*
X128244000Y-74015000D01*
X128244000Y-74015000D02*
X128244000Y-77115000D01*
X157988000Y-76835000D02*
X175768000Y-76835000D01*
X175768000Y-76835000D02*
X175768000Y-74295000D01*
X175768000Y-74295000D02*
X157988000Y-74295000D01*
X155168000Y-77115000D02*
X156718000Y-77115000D01*
X157988000Y-76835000D02*
X157988000Y-74295000D01*
X156718000Y-74015000D02*
X155168000Y-74015000D01*
X155168000Y-74015000D02*
X155168000Y-77115000D01*
X127254000Y-123825000D02*
G75*
G03X127254000Y-123825000I-2286000J0D01*
G01*
X179324000Y-118745000D02*
G75*
G03X179324000Y-118745000I-2286000J0D01*
G01*
X128524000Y-75565000D02*
G75*
G03X128524000Y-75565000I-2286000J0D01*
G01*
X179324000Y-90805000D02*
G75*
G03X179324000Y-90805000I-2286000J0D01*
G01*
X132081333Y-117142142D02*
X132033714Y-117189761D01*
X131890857Y-117237380D01*
X131795619Y-117237380D01*
X131652761Y-117189761D01*
X131557523Y-117094523D01*
X131509904Y-116999285D01*
X131462285Y-116808809D01*
X131462285Y-116665952D01*
X131509904Y-116475476D01*
X131557523Y-116380238D01*
X131652761Y-116285000D01*
X131795619Y-116237380D01*
X131890857Y-116237380D01*
X132033714Y-116285000D01*
X132081333Y-116332619D01*
X132414666Y-116237380D02*
X133033714Y-116237380D01*
X132700380Y-116618333D01*
X132843238Y-116618333D01*
X132938476Y-116665952D01*
X132986095Y-116713571D01*
X133033714Y-116808809D01*
X133033714Y-117046904D01*
X132986095Y-117142142D01*
X132938476Y-117189761D01*
X132843238Y-117237380D01*
X132557523Y-117237380D01*
X132462285Y-117189761D01*
X132414666Y-117142142D01*
X158566571Y-80277380D02*
X158233238Y-79801190D01*
X157995142Y-80277380D02*
X157995142Y-79277380D01*
X158376095Y-79277380D01*
X158471333Y-79325000D01*
X158518952Y-79372619D01*
X158566571Y-79467857D01*
X158566571Y-79610714D01*
X158518952Y-79705952D01*
X158471333Y-79753571D01*
X158376095Y-79801190D01*
X157995142Y-79801190D01*
X159185619Y-79277380D02*
X159376095Y-79277380D01*
X159471333Y-79325000D01*
X159566571Y-79420238D01*
X159614190Y-79610714D01*
X159614190Y-79944047D01*
X159566571Y-80134523D01*
X159471333Y-80229761D01*
X159376095Y-80277380D01*
X159185619Y-80277380D01*
X159090380Y-80229761D01*
X158995142Y-80134523D01*
X158947523Y-79944047D01*
X158947523Y-79610714D01*
X158995142Y-79420238D01*
X159090380Y-79325000D01*
X159185619Y-79277380D01*
X159899904Y-79277380D02*
X160471333Y-79277380D01*
X160185619Y-80277380D02*
X160185619Y-79277380D01*
X161328476Y-80277380D02*
X160757047Y-80277380D01*
X161042761Y-80277380D02*
X161042761Y-79277380D01*
X160947523Y-79420238D01*
X160852285Y-79515476D01*
X160757047Y-79563095D01*
X149438000Y-86506904D02*
X149390380Y-86602142D01*
X149390380Y-86745000D01*
X149438000Y-86887857D01*
X149533238Y-86983095D01*
X149628476Y-87030714D01*
X149818952Y-87078333D01*
X149961809Y-87078333D01*
X150152285Y-87030714D01*
X150247523Y-86983095D01*
X150342761Y-86887857D01*
X150390380Y-86745000D01*
X150390380Y-86649761D01*
X150342761Y-86506904D01*
X150295142Y-86459285D01*
X149961809Y-86459285D01*
X149961809Y-86649761D01*
X150390380Y-86030714D02*
X149390380Y-86030714D01*
X150390380Y-85459285D01*
X149390380Y-85459285D01*
X150390380Y-84983095D02*
X149390380Y-84983095D01*
X149390380Y-84745000D01*
X149438000Y-84602142D01*
X149533238Y-84506904D01*
X149628476Y-84459285D01*
X149818952Y-84411666D01*
X149961809Y-84411666D01*
X150152285Y-84459285D01*
X150247523Y-84506904D01*
X150342761Y-84602142D01*
X150390380Y-84745000D01*
X150390380Y-84983095D01*
X151780380Y-87048333D02*
X152780380Y-86715000D01*
X151780380Y-86381666D01*
X152685142Y-85476904D02*
X152732761Y-85524523D01*
X152780380Y-85667380D01*
X152780380Y-85762619D01*
X152732761Y-85905476D01*
X152637523Y-86000714D01*
X152542285Y-86048333D01*
X152351809Y-86095952D01*
X152208952Y-86095952D01*
X152018476Y-86048333D01*
X151923238Y-86000714D01*
X151828000Y-85905476D01*
X151780380Y-85762619D01*
X151780380Y-85667380D01*
X151828000Y-85524523D01*
X151875619Y-85476904D01*
X152685142Y-84476904D02*
X152732761Y-84524523D01*
X152780380Y-84667380D01*
X152780380Y-84762619D01*
X152732761Y-84905476D01*
X152637523Y-85000714D01*
X152542285Y-85048333D01*
X152351809Y-85095952D01*
X152208952Y-85095952D01*
X152018476Y-85048333D01*
X151923238Y-85000714D01*
X151828000Y-84905476D01*
X151780380Y-84762619D01*
X151780380Y-84667380D01*
X151828000Y-84524523D01*
X151875619Y-84476904D01*
X155352761Y-89425000D02*
X155400380Y-89282142D01*
X155400380Y-89044047D01*
X155352761Y-88948809D01*
X155305142Y-88901190D01*
X155209904Y-88853571D01*
X155114666Y-88853571D01*
X155019428Y-88901190D01*
X154971809Y-88948809D01*
X154924190Y-89044047D01*
X154876571Y-89234523D01*
X154828952Y-89329761D01*
X154781333Y-89377380D01*
X154686095Y-89425000D01*
X154590857Y-89425000D01*
X154495619Y-89377380D01*
X154448000Y-89329761D01*
X154400380Y-89234523D01*
X154400380Y-88996428D01*
X154448000Y-88853571D01*
X154400380Y-88520238D02*
X155400380Y-88282142D01*
X154686095Y-88091666D01*
X155400380Y-87901190D01*
X154400380Y-87663095D01*
X155400380Y-87282142D02*
X154400380Y-87282142D01*
X154400380Y-86948809D02*
X154400380Y-86377380D01*
X155400380Y-86663095D02*
X154400380Y-86663095D01*
X155305142Y-85472619D02*
X155352761Y-85520238D01*
X155400380Y-85663095D01*
X155400380Y-85758333D01*
X155352761Y-85901190D01*
X155257523Y-85996428D01*
X155162285Y-86044047D01*
X154971809Y-86091666D01*
X154828952Y-86091666D01*
X154638476Y-86044047D01*
X154543238Y-85996428D01*
X154448000Y-85901190D01*
X154400380Y-85758333D01*
X154400380Y-85663095D01*
X154448000Y-85520238D01*
X154495619Y-85472619D01*
X155400380Y-85044047D02*
X154400380Y-85044047D01*
X154876571Y-85044047D02*
X154876571Y-84472619D01*
X155400380Y-84472619D02*
X154400380Y-84472619D01*
X157910380Y-87445000D02*
X156910380Y-87445000D01*
X156910380Y-87206904D01*
X156958000Y-87064047D01*
X157053238Y-86968809D01*
X157148476Y-86921190D01*
X157338952Y-86873571D01*
X157481809Y-86873571D01*
X157672285Y-86921190D01*
X157767523Y-86968809D01*
X157862761Y-87064047D01*
X157910380Y-87206904D01*
X157910380Y-87445000D01*
X157624666Y-86492619D02*
X157624666Y-86016428D01*
X157910380Y-86587857D02*
X156910380Y-86254523D01*
X157910380Y-85921190D01*
X156910380Y-85730714D02*
X156910380Y-85159285D01*
X157910380Y-85445000D02*
X156910380Y-85445000D01*
X157624666Y-84873571D02*
X157624666Y-84397380D01*
X157910380Y-84968809D02*
X156910380Y-84635476D01*
X157910380Y-84302142D01*
X160325142Y-86210238D02*
X160372761Y-86257857D01*
X160420380Y-86400714D01*
X160420380Y-86495952D01*
X160372761Y-86638809D01*
X160277523Y-86734047D01*
X160182285Y-86781666D01*
X159991809Y-86829285D01*
X159848952Y-86829285D01*
X159658476Y-86781666D01*
X159563238Y-86734047D01*
X159468000Y-86638809D01*
X159420380Y-86495952D01*
X159420380Y-86400714D01*
X159468000Y-86257857D01*
X159515619Y-86210238D01*
X160420380Y-85305476D02*
X160420380Y-85781666D01*
X159420380Y-85781666D01*
X160420380Y-84972142D02*
X159420380Y-84972142D01*
X160420380Y-84400714D02*
X159848952Y-84829285D01*
X159420380Y-84400714D02*
X159991809Y-84972142D01*
X160291333Y-110737380D02*
X159958000Y-110261190D01*
X159719904Y-110737380D02*
X159719904Y-109737380D01*
X160100857Y-109737380D01*
X160196095Y-109785000D01*
X160243714Y-109832619D01*
X160291333Y-109927857D01*
X160291333Y-110070714D01*
X160243714Y-110165952D01*
X160196095Y-110213571D01*
X160100857Y-110261190D01*
X159719904Y-110261190D01*
X161148476Y-109737380D02*
X160958000Y-109737380D01*
X160862761Y-109785000D01*
X160815142Y-109832619D01*
X160719904Y-109975476D01*
X160672285Y-110165952D01*
X160672285Y-110546904D01*
X160719904Y-110642142D01*
X160767523Y-110689761D01*
X160862761Y-110737380D01*
X161053238Y-110737380D01*
X161148476Y-110689761D01*
X161196095Y-110642142D01*
X161243714Y-110546904D01*
X161243714Y-110308809D01*
X161196095Y-110213571D01*
X161148476Y-110165952D01*
X161053238Y-110118333D01*
X160862761Y-110118333D01*
X160767523Y-110165952D01*
X160719904Y-110213571D01*
X160672285Y-110308809D01*
X113530380Y-97071666D02*
X113054190Y-97405000D01*
X113530380Y-97643095D02*
X112530380Y-97643095D01*
X112530380Y-97262142D01*
X112578000Y-97166904D01*
X112625619Y-97119285D01*
X112720857Y-97071666D01*
X112863714Y-97071666D01*
X112958952Y-97119285D01*
X113006571Y-97166904D01*
X113054190Y-97262142D01*
X113054190Y-97643095D01*
X112530380Y-96166904D02*
X112530380Y-96643095D01*
X113006571Y-96690714D01*
X112958952Y-96643095D01*
X112911333Y-96547857D01*
X112911333Y-96309761D01*
X112958952Y-96214523D01*
X113006571Y-96166904D01*
X113101809Y-96119285D01*
X113339904Y-96119285D01*
X113435142Y-96166904D01*
X113482761Y-96214523D01*
X113530380Y-96309761D01*
X113530380Y-96547857D01*
X113482761Y-96643095D01*
X113435142Y-96690714D01*
X143530380Y-105991666D02*
X143054190Y-106325000D01*
X143530380Y-106563095D02*
X142530380Y-106563095D01*
X142530380Y-106182142D01*
X142578000Y-106086904D01*
X142625619Y-106039285D01*
X142720857Y-105991666D01*
X142863714Y-105991666D01*
X142958952Y-106039285D01*
X143006571Y-106086904D01*
X143054190Y-106182142D01*
X143054190Y-106563095D01*
X142530380Y-105658333D02*
X142530380Y-105039285D01*
X142911333Y-105372619D01*
X142911333Y-105229761D01*
X142958952Y-105134523D01*
X143006571Y-105086904D01*
X143101809Y-105039285D01*
X143339904Y-105039285D01*
X143435142Y-105086904D01*
X143482761Y-105134523D01*
X143530380Y-105229761D01*
X143530380Y-105515476D01*
X143482761Y-105610714D01*
X143435142Y-105658333D01*
X160291333Y-105737380D02*
X159958000Y-105261190D01*
X159719904Y-105737380D02*
X159719904Y-104737380D01*
X160100857Y-104737380D01*
X160196095Y-104785000D01*
X160243714Y-104832619D01*
X160291333Y-104927857D01*
X160291333Y-105070714D01*
X160243714Y-105165952D01*
X160196095Y-105213571D01*
X160100857Y-105261190D01*
X159719904Y-105261190D01*
X160672285Y-104832619D02*
X160719904Y-104785000D01*
X160815142Y-104737380D01*
X161053238Y-104737380D01*
X161148476Y-104785000D01*
X161196095Y-104832619D01*
X161243714Y-104927857D01*
X161243714Y-105023095D01*
X161196095Y-105165952D01*
X160624666Y-105737380D01*
X161243714Y-105737380D01*
X123370380Y-107071666D02*
X122894190Y-107405000D01*
X123370380Y-107643095D02*
X122370380Y-107643095D01*
X122370380Y-107262142D01*
X122418000Y-107166904D01*
X122465619Y-107119285D01*
X122560857Y-107071666D01*
X122703714Y-107071666D01*
X122798952Y-107119285D01*
X122846571Y-107166904D01*
X122894190Y-107262142D01*
X122894190Y-107643095D01*
X123370380Y-106119285D02*
X123370380Y-106690714D01*
X123370380Y-106405000D02*
X122370380Y-106405000D01*
X122513238Y-106500238D01*
X122608476Y-106595476D01*
X122656095Y-106690714D01*
X169426571Y-110317380D02*
X169617047Y-110317380D01*
X169712285Y-110365000D01*
X169807523Y-110460238D01*
X169855142Y-110650714D01*
X169855142Y-110984047D01*
X169807523Y-111174523D01*
X169712285Y-111269761D01*
X169617047Y-111317380D01*
X169426571Y-111317380D01*
X169331333Y-111269761D01*
X169236095Y-111174523D01*
X169188476Y-110984047D01*
X169188476Y-110650714D01*
X169236095Y-110460238D01*
X169331333Y-110365000D01*
X169426571Y-110317380D01*
X170807523Y-111317380D02*
X170236095Y-111317380D01*
X170521809Y-111317380D02*
X170521809Y-110317380D01*
X170426571Y-110460238D01*
X170331333Y-110555476D01*
X170236095Y-110603095D01*
X166352761Y-117809285D02*
X166400380Y-117666428D01*
X166400380Y-117428333D01*
X166352761Y-117333095D01*
X166305142Y-117285476D01*
X166209904Y-117237857D01*
X166114666Y-117237857D01*
X166019428Y-117285476D01*
X165971809Y-117333095D01*
X165924190Y-117428333D01*
X165876571Y-117618809D01*
X165828952Y-117714047D01*
X165781333Y-117761666D01*
X165686095Y-117809285D01*
X165590857Y-117809285D01*
X165495619Y-117761666D01*
X165448000Y-117714047D01*
X165400380Y-117618809D01*
X165400380Y-117380714D01*
X165448000Y-117237857D01*
X166400380Y-116809285D02*
X165400380Y-116809285D01*
X165400380Y-116571190D01*
X165448000Y-116428333D01*
X165543238Y-116333095D01*
X165638476Y-116285476D01*
X165828952Y-116237857D01*
X165971809Y-116237857D01*
X166162285Y-116285476D01*
X166257523Y-116333095D01*
X166352761Y-116428333D01*
X166400380Y-116571190D01*
X166400380Y-116809285D01*
X166114666Y-115856904D02*
X166114666Y-115380714D01*
X166400380Y-115952142D02*
X165400380Y-115618809D01*
X166400380Y-115285476D01*
X169102761Y-117940714D02*
X169150380Y-117797857D01*
X169150380Y-117559761D01*
X169102761Y-117464523D01*
X169055142Y-117416904D01*
X168959904Y-117369285D01*
X168864666Y-117369285D01*
X168769428Y-117416904D01*
X168721809Y-117464523D01*
X168674190Y-117559761D01*
X168626571Y-117750238D01*
X168578952Y-117845476D01*
X168531333Y-117893095D01*
X168436095Y-117940714D01*
X168340857Y-117940714D01*
X168245619Y-117893095D01*
X168198000Y-117845476D01*
X168150380Y-117750238D01*
X168150380Y-117512142D01*
X168198000Y-117369285D01*
X169055142Y-116369285D02*
X169102761Y-116416904D01*
X169150380Y-116559761D01*
X169150380Y-116655000D01*
X169102761Y-116797857D01*
X169007523Y-116893095D01*
X168912285Y-116940714D01*
X168721809Y-116988333D01*
X168578952Y-116988333D01*
X168388476Y-116940714D01*
X168293238Y-116893095D01*
X168198000Y-116797857D01*
X168150380Y-116655000D01*
X168150380Y-116559761D01*
X168198000Y-116416904D01*
X168245619Y-116369285D01*
X169150380Y-115940714D02*
X168150380Y-115940714D01*
X169150380Y-115369285D02*
X168578952Y-115797857D01*
X168150380Y-115369285D02*
X168721809Y-115940714D01*
X170880380Y-118038333D02*
X171880380Y-117705000D01*
X170880380Y-117371666D01*
X171785142Y-116466904D02*
X171832761Y-116514523D01*
X171880380Y-116657380D01*
X171880380Y-116752619D01*
X171832761Y-116895476D01*
X171737523Y-116990714D01*
X171642285Y-117038333D01*
X171451809Y-117085952D01*
X171308952Y-117085952D01*
X171118476Y-117038333D01*
X171023238Y-116990714D01*
X170928000Y-116895476D01*
X170880380Y-116752619D01*
X170880380Y-116657380D01*
X170928000Y-116514523D01*
X170975619Y-116466904D01*
X171785142Y-115466904D02*
X171832761Y-115514523D01*
X171880380Y-115657380D01*
X171880380Y-115752619D01*
X171832761Y-115895476D01*
X171737523Y-115990714D01*
X171642285Y-116038333D01*
X171451809Y-116085952D01*
X171308952Y-116085952D01*
X171118476Y-116038333D01*
X171023238Y-115990714D01*
X170928000Y-115895476D01*
X170880380Y-115752619D01*
X170880380Y-115657380D01*
X170928000Y-115514523D01*
X170975619Y-115466904D01*
X173568000Y-117436904D02*
X173520380Y-117532142D01*
X173520380Y-117675000D01*
X173568000Y-117817857D01*
X173663238Y-117913095D01*
X173758476Y-117960714D01*
X173948952Y-118008333D01*
X174091809Y-118008333D01*
X174282285Y-117960714D01*
X174377523Y-117913095D01*
X174472761Y-117817857D01*
X174520380Y-117675000D01*
X174520380Y-117579761D01*
X174472761Y-117436904D01*
X174425142Y-117389285D01*
X174091809Y-117389285D01*
X174091809Y-117579761D01*
X174520380Y-116960714D02*
X173520380Y-116960714D01*
X174520380Y-116389285D01*
X173520380Y-116389285D01*
X174520380Y-115913095D02*
X173520380Y-115913095D01*
X173520380Y-115675000D01*
X173568000Y-115532142D01*
X173663238Y-115436904D01*
X173758476Y-115389285D01*
X173948952Y-115341666D01*
X174091809Y-115341666D01*
X174282285Y-115389285D01*
X174377523Y-115436904D01*
X174472761Y-115532142D01*
X174520380Y-115675000D01*
X174520380Y-115913095D01*
X131950380Y-99507380D02*
X131474190Y-99507380D01*
X131474190Y-98507380D01*
X132140857Y-98507380D02*
X132712285Y-98507380D01*
X132426571Y-99507380D02*
X132426571Y-98507380D01*
X133617047Y-99412142D02*
X133569428Y-99459761D01*
X133426571Y-99507380D01*
X133331333Y-99507380D01*
X133188476Y-99459761D01*
X133093238Y-99364523D01*
X133045619Y-99269285D01*
X132998000Y-99078809D01*
X132998000Y-98935952D01*
X133045619Y-98745476D01*
X133093238Y-98650238D01*
X133188476Y-98555000D01*
X133331333Y-98507380D01*
X133426571Y-98507380D01*
X133569428Y-98555000D01*
X133617047Y-98602619D01*
X134569428Y-99507380D02*
X133998000Y-99507380D01*
X134283714Y-99507380D02*
X134283714Y-98507380D01*
X134188476Y-98650238D01*
X134093238Y-98745476D01*
X133998000Y-98793095D01*
X139102285Y-101527380D02*
X139102285Y-100527380D01*
X139673714Y-101527380D01*
X139673714Y-100527380D01*
X140721333Y-101432142D02*
X140673714Y-101479761D01*
X140530857Y-101527380D01*
X140435619Y-101527380D01*
X140292761Y-101479761D01*
X140197523Y-101384523D01*
X140149904Y-101289285D01*
X140102285Y-101098809D01*
X140102285Y-100955952D01*
X140149904Y-100765476D01*
X140197523Y-100670238D01*
X140292761Y-100575000D01*
X140435619Y-100527380D01*
X140530857Y-100527380D01*
X140673714Y-100575000D01*
X140721333Y-100622619D01*
X139325619Y-103327380D02*
X139658952Y-104327380D01*
X139992285Y-103327380D01*
X140325619Y-103946428D02*
X141087523Y-103946428D01*
X140706571Y-104327380D02*
X140706571Y-103565476D01*
X138928000Y-106157380D02*
X139118476Y-106157380D01*
X139213714Y-106205000D01*
X139308952Y-106300238D01*
X139356571Y-106490714D01*
X139356571Y-106824047D01*
X139308952Y-107014523D01*
X139213714Y-107109761D01*
X139118476Y-107157380D01*
X138928000Y-107157380D01*
X138832761Y-107109761D01*
X138737523Y-107014523D01*
X138689904Y-106824047D01*
X138689904Y-106490714D01*
X138737523Y-106300238D01*
X138832761Y-106205000D01*
X138928000Y-106157380D01*
X139785142Y-106157380D02*
X139785142Y-106966904D01*
X139832761Y-107062142D01*
X139880380Y-107109761D01*
X139975619Y-107157380D01*
X140166095Y-107157380D01*
X140261333Y-107109761D01*
X140308952Y-107062142D01*
X140356571Y-106966904D01*
X140356571Y-106157380D01*
X140689904Y-106157380D02*
X141261333Y-106157380D01*
X140975619Y-107157380D02*
X140975619Y-106157380D01*
X139402761Y-109712142D02*
X139355142Y-109759761D01*
X139212285Y-109807380D01*
X139117047Y-109807380D01*
X138974190Y-109759761D01*
X138878952Y-109664523D01*
X138831333Y-109569285D01*
X138783714Y-109378809D01*
X138783714Y-109235952D01*
X138831333Y-109045476D01*
X138878952Y-108950238D01*
X138974190Y-108855000D01*
X139117047Y-108807380D01*
X139212285Y-108807380D01*
X139355142Y-108855000D01*
X139402761Y-108902619D01*
X140307523Y-109807380D02*
X139831333Y-109807380D01*
X139831333Y-108807380D01*
X140640857Y-109807380D02*
X140640857Y-108807380D01*
X141212285Y-109807380D02*
X140783714Y-109235952D01*
X141212285Y-108807380D02*
X140640857Y-109378809D01*
X125055619Y-109037380D02*
X125388952Y-110037380D01*
X125722285Y-109037380D01*
X126055619Y-109656428D02*
X126817523Y-109656428D01*
X124925142Y-107227380D02*
X124925142Y-106227380D01*
X125401333Y-107227380D02*
X125401333Y-106227380D01*
X125972761Y-107227380D01*
X125972761Y-106227380D01*
X126448952Y-106846428D02*
X127210857Y-106846428D01*
X126829904Y-107227380D02*
X126829904Y-106465476D01*
X124925142Y-104627380D02*
X124925142Y-103627380D01*
X125401333Y-104627380D02*
X125401333Y-103627380D01*
X125972761Y-104627380D01*
X125972761Y-103627380D01*
X126448952Y-104246428D02*
X127210857Y-104246428D01*
X125112285Y-102087380D02*
X125112285Y-101087380D01*
X125683714Y-102087380D01*
X125683714Y-101087380D01*
X126731333Y-101992142D02*
X126683714Y-102039761D01*
X126540857Y-102087380D01*
X126445619Y-102087380D01*
X126302761Y-102039761D01*
X126207523Y-101944523D01*
X126159904Y-101849285D01*
X126112285Y-101658809D01*
X126112285Y-101515952D01*
X126159904Y-101325476D01*
X126207523Y-101230238D01*
X126302761Y-101135000D01*
X126445619Y-101087380D01*
X126540857Y-101087380D01*
X126683714Y-101135000D01*
X126731333Y-101182619D01*
X149105142Y-106031666D02*
X149152761Y-106079285D01*
X149200380Y-106222142D01*
X149200380Y-106317380D01*
X149152761Y-106460238D01*
X149057523Y-106555476D01*
X148962285Y-106603095D01*
X148771809Y-106650714D01*
X148628952Y-106650714D01*
X148438476Y-106603095D01*
X148343238Y-106555476D01*
X148248000Y-106460238D01*
X148200380Y-106317380D01*
X148200380Y-106222142D01*
X148248000Y-106079285D01*
X148295619Y-106031666D01*
X148533714Y-105174523D02*
X149200380Y-105174523D01*
X148152761Y-105412619D02*
X148867047Y-105650714D01*
X148867047Y-105031666D01*
X165935142Y-105781666D02*
X165982761Y-105829285D01*
X166030380Y-105972142D01*
X166030380Y-106067380D01*
X165982761Y-106210238D01*
X165887523Y-106305476D01*
X165792285Y-106353095D01*
X165601809Y-106400714D01*
X165458952Y-106400714D01*
X165268476Y-106353095D01*
X165173238Y-106305476D01*
X165078000Y-106210238D01*
X165030380Y-106067380D01*
X165030380Y-105972142D01*
X165078000Y-105829285D01*
X165125619Y-105781666D01*
X165125619Y-105400714D02*
X165078000Y-105353095D01*
X165030380Y-105257857D01*
X165030380Y-105019761D01*
X165078000Y-104924523D01*
X165125619Y-104876904D01*
X165220857Y-104829285D01*
X165316095Y-104829285D01*
X165458952Y-104876904D01*
X166030380Y-105448333D01*
X166030380Y-104829285D01*
X117775142Y-107281666D02*
X117822761Y-107329285D01*
X117870380Y-107472142D01*
X117870380Y-107567380D01*
X117822761Y-107710238D01*
X117727523Y-107805476D01*
X117632285Y-107853095D01*
X117441809Y-107900714D01*
X117298952Y-107900714D01*
X117108476Y-107853095D01*
X117013238Y-107805476D01*
X116918000Y-107710238D01*
X116870380Y-107567380D01*
X116870380Y-107472142D01*
X116918000Y-107329285D01*
X116965619Y-107281666D01*
X117870380Y-106329285D02*
X117870380Y-106900714D01*
X117870380Y-106615000D02*
X116870380Y-106615000D01*
X117013238Y-106710238D01*
X117108476Y-106805476D01*
X117156095Y-106900714D01*
X112855142Y-89531666D02*
X112902761Y-89579285D01*
X112950380Y-89722142D01*
X112950380Y-89817380D01*
X112902761Y-89960238D01*
X112807523Y-90055476D01*
X112712285Y-90103095D01*
X112521809Y-90150714D01*
X112378952Y-90150714D01*
X112188476Y-90103095D01*
X112093238Y-90055476D01*
X111998000Y-89960238D01*
X111950380Y-89817380D01*
X111950380Y-89722142D01*
X111998000Y-89579285D01*
X112045619Y-89531666D01*
X111950380Y-88912619D02*
X111950380Y-88817380D01*
X111998000Y-88722142D01*
X112045619Y-88674523D01*
X112140857Y-88626904D01*
X112331333Y-88579285D01*
X112569428Y-88579285D01*
X112759904Y-88626904D01*
X112855142Y-88674523D01*
X112902761Y-88722142D01*
X112950380Y-88817380D01*
X112950380Y-88912619D01*
X112902761Y-89007857D01*
X112855142Y-89055476D01*
X112759904Y-89103095D01*
X112569428Y-89150714D01*
X112331333Y-89150714D01*
X112140857Y-89103095D01*
X112045619Y-89055476D01*
X111998000Y-89007857D01*
X111950380Y-88912619D01*
X117098000Y-90287380D02*
X117288476Y-90287380D01*
X117383714Y-90335000D01*
X117478952Y-90430238D01*
X117526571Y-90620714D01*
X117526571Y-90954047D01*
X117478952Y-91144523D01*
X117383714Y-91239761D01*
X117288476Y-91287380D01*
X117098000Y-91287380D01*
X117002761Y-91239761D01*
X116907523Y-91144523D01*
X116859904Y-90954047D01*
X116859904Y-90620714D01*
X116907523Y-90430238D01*
X117002761Y-90335000D01*
X117098000Y-90287380D01*
X117955142Y-90287380D02*
X117955142Y-91096904D01*
X118002761Y-91192142D01*
X118050380Y-91239761D01*
X118145619Y-91287380D01*
X118336095Y-91287380D01*
X118431333Y-91239761D01*
X118478952Y-91192142D01*
X118526571Y-91096904D01*
X118526571Y-90287380D01*
X118859904Y-90287380D02*
X119431333Y-90287380D01*
X119145619Y-91287380D02*
X119145619Y-90287380D01*
X116864190Y-88397380D02*
X116864190Y-87397380D01*
X117340380Y-88397380D02*
X117340380Y-87397380D01*
X117911809Y-88397380D01*
X117911809Y-87397380D01*
X134593238Y-80793571D02*
X134736095Y-80841190D01*
X134783714Y-80888809D01*
X134831333Y-80984047D01*
X134831333Y-81126904D01*
X134783714Y-81222142D01*
X134736095Y-81269761D01*
X134640857Y-81317380D01*
X134259904Y-81317380D01*
X134259904Y-80317380D01*
X134593238Y-80317380D01*
X134688476Y-80365000D01*
X134736095Y-80412619D01*
X134783714Y-80507857D01*
X134783714Y-80603095D01*
X134736095Y-80698333D01*
X134688476Y-80745952D01*
X134593238Y-80793571D01*
X134259904Y-80793571D01*
X135783714Y-81317380D02*
X135212285Y-81317380D01*
X135498000Y-81317380D02*
X135498000Y-80317380D01*
X135402761Y-80460238D01*
X135307523Y-80555476D01*
X135212285Y-80603095D01*
X131590380Y-86220238D02*
X131114190Y-86553571D01*
X131590380Y-86791666D02*
X130590380Y-86791666D01*
X130590380Y-86410714D01*
X130638000Y-86315476D01*
X130685619Y-86267857D01*
X130780857Y-86220238D01*
X130923714Y-86220238D01*
X131018952Y-86267857D01*
X131066571Y-86315476D01*
X131114190Y-86410714D01*
X131114190Y-86791666D01*
X131590380Y-85886904D02*
X130923714Y-85363095D01*
X130923714Y-85886904D02*
X131590380Y-85363095D01*
X133100380Y-86755476D02*
X133100380Y-86184047D01*
X134100380Y-86469761D02*
X133100380Y-86469761D01*
X134100380Y-85945952D02*
X133433714Y-85422142D01*
X133433714Y-85945952D02*
X134100380Y-85422142D01*
X135768000Y-87346904D02*
X135720380Y-87442142D01*
X135720380Y-87585000D01*
X135768000Y-87727857D01*
X135863238Y-87823095D01*
X135958476Y-87870714D01*
X136148952Y-87918333D01*
X136291809Y-87918333D01*
X136482285Y-87870714D01*
X136577523Y-87823095D01*
X136672761Y-87727857D01*
X136720380Y-87585000D01*
X136720380Y-87489761D01*
X136672761Y-87346904D01*
X136625142Y-87299285D01*
X136291809Y-87299285D01*
X136291809Y-87489761D01*
X136720380Y-86870714D02*
X135720380Y-86870714D01*
X136720380Y-86299285D01*
X135720380Y-86299285D01*
X136720380Y-85823095D02*
X135720380Y-85823095D01*
X135720380Y-85585000D01*
X135768000Y-85442142D01*
X135863238Y-85346904D01*
X135958476Y-85299285D01*
X136148952Y-85251666D01*
X136291809Y-85251666D01*
X136482285Y-85299285D01*
X136577523Y-85346904D01*
X136672761Y-85442142D01*
X136720380Y-85585000D01*
X136720380Y-85823095D01*
X138420380Y-87898333D02*
X139420380Y-87565000D01*
X138420380Y-87231666D01*
X139325142Y-86326904D02*
X139372761Y-86374523D01*
X139420380Y-86517380D01*
X139420380Y-86612619D01*
X139372761Y-86755476D01*
X139277523Y-86850714D01*
X139182285Y-86898333D01*
X138991809Y-86945952D01*
X138848952Y-86945952D01*
X138658476Y-86898333D01*
X138563238Y-86850714D01*
X138468000Y-86755476D01*
X138420380Y-86612619D01*
X138420380Y-86517380D01*
X138468000Y-86374523D01*
X138515619Y-86326904D01*
X139325142Y-85326904D02*
X139372761Y-85374523D01*
X139420380Y-85517380D01*
X139420380Y-85612619D01*
X139372761Y-85755476D01*
X139277523Y-85850714D01*
X139182285Y-85898333D01*
X138991809Y-85945952D01*
X138848952Y-85945952D01*
X138658476Y-85898333D01*
X138563238Y-85850714D01*
X138468000Y-85755476D01*
X138420380Y-85612619D01*
X138420380Y-85517380D01*
X138468000Y-85374523D01*
X138515619Y-85326904D01*
X147089904Y-121737380D02*
X147089904Y-120737380D01*
X147470857Y-120737380D01*
X147566095Y-120785000D01*
X147613714Y-120832619D01*
X147661333Y-120927857D01*
X147661333Y-121070714D01*
X147613714Y-121165952D01*
X147566095Y-121213571D01*
X147470857Y-121261190D01*
X147089904Y-121261190D01*
X148613714Y-121737380D02*
X148042285Y-121737380D01*
X148328000Y-121737380D02*
X148328000Y-120737380D01*
X148232761Y-120880238D01*
X148137523Y-120975476D01*
X148042285Y-121023095D01*
X167663904Y-121737380D02*
X167663904Y-120737380D01*
X168044857Y-120737380D01*
X168140095Y-120785000D01*
X168187714Y-120832619D01*
X168235333Y-120927857D01*
X168235333Y-121070714D01*
X168187714Y-121165952D01*
X168140095Y-121213571D01*
X168044857Y-121261190D01*
X167663904Y-121261190D01*
X168616285Y-120832619D02*
X168663904Y-120785000D01*
X168759142Y-120737380D01*
X168997238Y-120737380D01*
X169092476Y-120785000D01*
X169140095Y-120832619D01*
X169187714Y-120927857D01*
X169187714Y-121023095D01*
X169140095Y-121165952D01*
X168568666Y-121737380D01*
X169187714Y-121737380D01*
X140485904Y-78811380D02*
X140485904Y-77811380D01*
X140866857Y-77811380D01*
X140962095Y-77859000D01*
X141009714Y-77906619D01*
X141057333Y-78001857D01*
X141057333Y-78144714D01*
X141009714Y-78239952D01*
X140962095Y-78287571D01*
X140866857Y-78335190D01*
X140485904Y-78335190D01*
X141390666Y-77811380D02*
X142009714Y-77811380D01*
X141676380Y-78192333D01*
X141819238Y-78192333D01*
X141914476Y-78239952D01*
X141962095Y-78287571D01*
X142009714Y-78382809D01*
X142009714Y-78620904D01*
X141962095Y-78716142D01*
X141914476Y-78763761D01*
X141819238Y-78811380D01*
X141533523Y-78811380D01*
X141438285Y-78763761D01*
X141390666Y-78716142D01*
X164869904Y-78811380D02*
X164869904Y-77811380D01*
X165250857Y-77811380D01*
X165346095Y-77859000D01*
X165393714Y-77906619D01*
X165441333Y-78001857D01*
X165441333Y-78144714D01*
X165393714Y-78239952D01*
X165346095Y-78287571D01*
X165250857Y-78335190D01*
X164869904Y-78335190D01*
X166298476Y-78144714D02*
X166298476Y-78811380D01*
X166060380Y-77763761D02*
X165822285Y-78478047D01*
X166441333Y-78478047D01*
M02*
