G04 #@! TF.GenerationSoftware,KiCad,Pcbnew,(5.1.2)-2*
G04 #@! TF.CreationDate,2021-03-05T11:45:08+01:00*
G04 #@! TF.ProjectId,Shield,53686965-6c64-42e6-9b69-6361645f7063,rev?*
G04 #@! TF.SameCoordinates,Original*
G04 #@! TF.FileFunction,Copper,L2,Bot*
G04 #@! TF.FilePolarity,Positive*
%FSLAX46Y46*%
G04 Gerber Fmt 4.6, Leading zero omitted, Abs format (unit mm)*
G04 Created by KiCad (PCBNEW (5.1.2)-2) date 2021-03-05 11:45:08*
%MOMM*%
%LPD*%
G04 APERTURE LIST*
%ADD10C,0.300000*%
%ADD11O,1.600000X1.600000*%
%ADD12C,1.600000*%
%ADD13C,2.000000*%
%ADD14O,1.400000X1.400000*%
%ADD15C,1.400000*%
%ADD16R,2.000000X2.000000*%
%ADD17O,1.727200X2.032000*%
%ADD18C,4.064000*%
%ADD19C,0.500000*%
%ADD20C,0.254000*%
G04 APERTURE END LIST*
D10*
X150962285Y-93900714D02*
X151033714Y-93972142D01*
X151248000Y-94043571D01*
X151390857Y-94043571D01*
X151605142Y-93972142D01*
X151748000Y-93829285D01*
X151819428Y-93686428D01*
X151890857Y-93400714D01*
X151890857Y-93186428D01*
X151819428Y-92900714D01*
X151748000Y-92757857D01*
X151605142Y-92615000D01*
X151390857Y-92543571D01*
X151248000Y-92543571D01*
X151033714Y-92615000D01*
X150962285Y-92686428D01*
X149462285Y-93900714D02*
X149533714Y-93972142D01*
X149748000Y-94043571D01*
X149890857Y-94043571D01*
X150105142Y-93972142D01*
X150248000Y-93829285D01*
X150319428Y-93686428D01*
X150390857Y-93400714D01*
X150390857Y-93186428D01*
X150319428Y-92900714D01*
X150248000Y-92757857D01*
X150105142Y-92615000D01*
X149890857Y-92543571D01*
X149748000Y-92543571D01*
X149533714Y-92615000D01*
X149462285Y-92686428D01*
X146462285Y-94043571D02*
X146533714Y-94043571D01*
X146676571Y-93972142D01*
X146890857Y-93757857D01*
X147248000Y-93329285D01*
X147390857Y-93115000D01*
X147462285Y-92900714D01*
X147462285Y-92757857D01*
X147390857Y-92615000D01*
X147248000Y-92543571D01*
X147176571Y-92543571D01*
X147033714Y-92615000D01*
X146962285Y-92757857D01*
X146962285Y-92829285D01*
X147033714Y-92972142D01*
X147105142Y-93043571D01*
X147533714Y-93329285D01*
X147605142Y-93400714D01*
X147676571Y-93543571D01*
X147676571Y-93757857D01*
X147605142Y-93900714D01*
X147533714Y-93972142D01*
X147390857Y-94043571D01*
X147176571Y-94043571D01*
X147033714Y-93972142D01*
X146962285Y-93900714D01*
X146748000Y-93615000D01*
X146676571Y-93400714D01*
X146676571Y-93257857D01*
X144748000Y-93972142D02*
X144533714Y-94043571D01*
X144176571Y-94043571D01*
X144033714Y-93972142D01*
X143962285Y-93900714D01*
X143890857Y-93757857D01*
X143890857Y-93615000D01*
X143962285Y-93472142D01*
X144033714Y-93400714D01*
X144176571Y-93329285D01*
X144462285Y-93257857D01*
X144605142Y-93186428D01*
X144676571Y-93115000D01*
X144748000Y-92972142D01*
X144748000Y-92829285D01*
X144676571Y-92686428D01*
X144605142Y-92615000D01*
X144462285Y-92543571D01*
X144105142Y-92543571D01*
X143890857Y-92615000D01*
X142676571Y-93972142D02*
X142819428Y-94043571D01*
X143105142Y-94043571D01*
X143248000Y-93972142D01*
X143319428Y-93829285D01*
X143319428Y-93257857D01*
X143248000Y-93115000D01*
X143105142Y-93043571D01*
X142819428Y-93043571D01*
X142676571Y-93115000D01*
X142605142Y-93257857D01*
X142605142Y-93400714D01*
X143319428Y-93543571D01*
X141962285Y-94043571D02*
X141962285Y-92543571D01*
X141962285Y-93115000D02*
X141819428Y-93043571D01*
X141533714Y-93043571D01*
X141390857Y-93115000D01*
X141319428Y-93186428D01*
X141248000Y-93329285D01*
X141248000Y-93757857D01*
X141319428Y-93900714D01*
X141390857Y-93972142D01*
X141533714Y-94043571D01*
X141819428Y-94043571D01*
X141962285Y-93972142D01*
X140748000Y-93043571D02*
X140390857Y-94043571D01*
X140033714Y-93043571D02*
X140390857Y-94043571D01*
X140533714Y-94400714D01*
X140605142Y-94472142D01*
X140748000Y-94543571D01*
D11*
X128498000Y-114365000D03*
D12*
X135998000Y-114365000D03*
D13*
X149918000Y-82365000D03*
X152458000Y-82365000D03*
X154998000Y-82365000D03*
X157538000Y-82365000D03*
X160078000Y-82365000D03*
D14*
X157918000Y-108365000D03*
D15*
X162998000Y-108365000D03*
D14*
X114998000Y-94365000D03*
D15*
X114998000Y-99445000D03*
D14*
X144998000Y-103285000D03*
D15*
X144998000Y-108365000D03*
D14*
X157918000Y-103365000D03*
D15*
X162998000Y-103365000D03*
D14*
X120998000Y-109445000D03*
D15*
X120998000Y-104365000D03*
D13*
X166188000Y-113365000D03*
X168728000Y-113365000D03*
X171268000Y-113365000D03*
X173808000Y-113365000D03*
X129238000Y-109175000D03*
X136758000Y-109175000D03*
X129238000Y-106635000D03*
X136758000Y-106635000D03*
X129238000Y-104095000D03*
X136758000Y-104095000D03*
D16*
X129238000Y-101555000D03*
D13*
X136758000Y-101555000D03*
D12*
X152998000Y-103365000D03*
X152998000Y-108365000D03*
D11*
X167998000Y-101865000D03*
D12*
X167998000Y-109365000D03*
D11*
X114998000Y-110865000D03*
D12*
X114998000Y-103365000D03*
D13*
X114998000Y-90635000D03*
X114998000Y-88095000D03*
X130188000Y-82365000D03*
X132728000Y-82365000D03*
X135268000Y-82365000D03*
X137808000Y-82365000D03*
D17*
X138938000Y-123825000D03*
X141478000Y-123825000D03*
X144018000Y-123825000D03*
X146558000Y-123825000D03*
X149098000Y-123825000D03*
X151638000Y-123825000D03*
X154178000Y-123825000D03*
X156718000Y-123825000D03*
X161798000Y-123825000D03*
X164338000Y-123825000D03*
X166878000Y-123825000D03*
X169418000Y-123825000D03*
X171958000Y-123825000D03*
X174498000Y-123825000D03*
X129794000Y-75565000D03*
X132334000Y-75565000D03*
X134874000Y-75565000D03*
X137414000Y-75565000D03*
X139954000Y-75565000D03*
X142494000Y-75565000D03*
X145034000Y-75565000D03*
X147574000Y-75565000D03*
X150114000Y-75565000D03*
X152654000Y-75565000D03*
X156718000Y-75565000D03*
X159258000Y-75565000D03*
X161798000Y-75565000D03*
X164338000Y-75565000D03*
X166878000Y-75565000D03*
X169418000Y-75565000D03*
X171958000Y-75565000D03*
X174498000Y-75565000D03*
D18*
X124968000Y-123825000D03*
X177038000Y-118745000D03*
X126238000Y-75565000D03*
X177038000Y-90805000D03*
D19*
X135198001Y-115164999D02*
X135998000Y-114365000D01*
X134747999Y-115615001D02*
X135198001Y-115164999D01*
X117897999Y-115615001D02*
X134747999Y-115615001D01*
X113547999Y-111265001D02*
X117897999Y-115615001D01*
X113547999Y-89545001D02*
X113547999Y-111265001D01*
X114998000Y-88095000D02*
X113547999Y-89545001D01*
X149098000Y-123672600D02*
X149098000Y-123825000D01*
X140590399Y-115164999D02*
X149098000Y-123672600D01*
X136797999Y-115164999D02*
X140590399Y-115164999D01*
X135998000Y-114365000D02*
X136797999Y-115164999D01*
X135758001Y-105094999D02*
X136758000Y-104095000D01*
X135198001Y-105654999D02*
X135758001Y-105094999D01*
X135198001Y-113565001D02*
X135198001Y-105654999D01*
X135998000Y-114365000D02*
X135198001Y-113565001D01*
X114998000Y-88095000D02*
X115997999Y-87095001D01*
X171268000Y-111950787D02*
X171268000Y-113365000D01*
X137808000Y-87015002D02*
X137728001Y-87095001D01*
X137808000Y-82365000D02*
X137808000Y-87015002D01*
X115997999Y-87095001D02*
X137728001Y-87095001D01*
X137728001Y-87095001D02*
X149077999Y-87095001D01*
X149077999Y-85745001D02*
X149077999Y-87095001D01*
X152458000Y-82365000D02*
X149077999Y-85745001D01*
X172267999Y-114364999D02*
X171268000Y-113365000D01*
X172718001Y-114815001D02*
X172267999Y-114364999D01*
X175258001Y-114061001D02*
X174504001Y-114815001D01*
X175258001Y-107274999D02*
X175258001Y-114061001D01*
X174504001Y-114815001D02*
X172718001Y-114815001D01*
X155078003Y-87095001D02*
X175258001Y-107274999D01*
X149077999Y-87095001D02*
X155078003Y-87095001D01*
X164498000Y-101865000D02*
X162998000Y-103365000D01*
X167998000Y-101865000D02*
X164498000Y-101865000D01*
X151638000Y-123672600D02*
X151638000Y-123825000D01*
X119578000Y-110865000D02*
X120998000Y-109445000D01*
X114998000Y-110865000D02*
X119578000Y-110865000D01*
X128968000Y-109445000D02*
X129238000Y-109175000D01*
X120998000Y-109445000D02*
X128968000Y-109445000D01*
X128498000Y-109915000D02*
X129238000Y-109175000D01*
X128498000Y-114365000D02*
X128498000Y-109915000D01*
X173808000Y-107675000D02*
X173808000Y-113365000D01*
X167998000Y-101865000D02*
X173808000Y-107675000D01*
X137414000Y-75717400D02*
X137414000Y-75565000D01*
X140536412Y-80214988D02*
X145034000Y-75717400D01*
X145034000Y-75717400D02*
X145034000Y-75565000D01*
X132338012Y-80214988D02*
X140536412Y-80214988D01*
X130188000Y-82365000D02*
X132338012Y-80214988D01*
X147574000Y-75717400D02*
X147574000Y-75565000D01*
X134178001Y-80914999D02*
X142376401Y-80914999D01*
X132728000Y-82365000D02*
X134178001Y-80914999D01*
X142376401Y-80914999D02*
X147574000Y-75717400D01*
X114998000Y-94365000D02*
X114998000Y-90635000D01*
X119998000Y-103365000D02*
X120998000Y-104365000D01*
X114998000Y-103365000D02*
X119998000Y-103365000D01*
X114998000Y-99445000D02*
X114998000Y-103365000D01*
X126968000Y-104365000D02*
X129238000Y-106635000D01*
X120998000Y-104365000D02*
X126968000Y-104365000D01*
X163697999Y-109064999D02*
X162998000Y-108365000D01*
X163998000Y-109365000D02*
X163697999Y-109064999D01*
X167998000Y-109365000D02*
X163998000Y-109365000D01*
X162998000Y-122625000D02*
X161798000Y-123825000D01*
X161798000Y-123672600D02*
X161798000Y-123825000D01*
X165998000Y-119472600D02*
X161798000Y-123672600D01*
X165998000Y-116365000D02*
X165998000Y-119472600D01*
X162998000Y-113365000D02*
X165998000Y-116365000D01*
X162998000Y-108365000D02*
X162998000Y-113365000D01*
X157918000Y-103365000D02*
X152998000Y-103365000D01*
X152918000Y-103285000D02*
X152998000Y-103365000D01*
X144998000Y-103285000D02*
X152918000Y-103285000D01*
X130652213Y-104095000D02*
X129238000Y-104095000D01*
X134642214Y-100104999D02*
X130652213Y-104095000D01*
X141817999Y-100104999D02*
X134642214Y-100104999D01*
X144998000Y-103285000D02*
X141817999Y-100104999D01*
X157918000Y-108365000D02*
X152998000Y-108365000D01*
X144998000Y-108365000D02*
X152998000Y-108365000D01*
X143268000Y-106635000D02*
X144998000Y-108365000D01*
X136758000Y-106635000D02*
X143268000Y-106635000D01*
X170594400Y-122309000D02*
X171958000Y-123672600D01*
X171958000Y-123672600D02*
X171958000Y-123825000D01*
X170442000Y-122309000D02*
X170594400Y-122309000D01*
X167187999Y-119054999D02*
X170442000Y-122309000D01*
X167187999Y-114364999D02*
X167187999Y-119054999D01*
X166188000Y-113365000D02*
X167187999Y-114364999D01*
X174498000Y-123672600D02*
X174498000Y-123825000D01*
X173134400Y-122309000D02*
X174498000Y-123672600D01*
X172982000Y-122309000D02*
X173134400Y-122309000D01*
X168728000Y-118055000D02*
X172982000Y-122309000D01*
X168728000Y-113365000D02*
X168728000Y-118055000D01*
X167538000Y-76225000D02*
X166878000Y-75565000D01*
X166878000Y-75717400D02*
X166878000Y-75565000D01*
X161680401Y-80914999D02*
X166878000Y-75717400D01*
X158988001Y-80914999D02*
X161680401Y-80914999D01*
X157538000Y-82365000D02*
X158988001Y-80914999D01*
X164998000Y-76225000D02*
X164338000Y-75565000D01*
X164338000Y-75717400D02*
X164338000Y-75565000D01*
X161690400Y-78365000D02*
X164338000Y-75717400D01*
X158998000Y-78365000D02*
X161690400Y-78365000D01*
X154998000Y-82365000D02*
X158998000Y-78365000D01*
X170078000Y-76225000D02*
X169418000Y-75565000D01*
X169418000Y-75717400D02*
X169418000Y-75565000D01*
X162770400Y-82365000D02*
X169418000Y-75717400D01*
X160078000Y-82365000D02*
X162770400Y-82365000D01*
D20*
G36*
X124166406Y-73864887D02*
G01*
X123874536Y-74301702D01*
X123673492Y-74787065D01*
X123571000Y-75302323D01*
X123571000Y-75827677D01*
X123673492Y-76342935D01*
X123874536Y-76828298D01*
X124166406Y-77265113D01*
X124537887Y-77636594D01*
X124974702Y-77928464D01*
X125460065Y-78129508D01*
X125975323Y-78232000D01*
X126500677Y-78232000D01*
X127015935Y-78129508D01*
X127501298Y-77928464D01*
X127938113Y-77636594D01*
X128309594Y-77265113D01*
X128601464Y-76828298D01*
X128657001Y-76694219D01*
X128729203Y-76782197D01*
X128957395Y-76969469D01*
X129217737Y-77108625D01*
X129500224Y-77194316D01*
X129794000Y-77223251D01*
X130087777Y-77194316D01*
X130370264Y-77108625D01*
X130630606Y-76969469D01*
X130858797Y-76782197D01*
X131046069Y-76554006D01*
X131064000Y-76520459D01*
X131081931Y-76554006D01*
X131269203Y-76782197D01*
X131497395Y-76969469D01*
X131757737Y-77108625D01*
X132040224Y-77194316D01*
X132334000Y-77223251D01*
X132627777Y-77194316D01*
X132910264Y-77108625D01*
X133170606Y-76969469D01*
X133398797Y-76782197D01*
X133586069Y-76554006D01*
X133604000Y-76520459D01*
X133621931Y-76554006D01*
X133809203Y-76782197D01*
X134037395Y-76969469D01*
X134297737Y-77108625D01*
X134580224Y-77194316D01*
X134874000Y-77223251D01*
X135167777Y-77194316D01*
X135450264Y-77108625D01*
X135710606Y-76969469D01*
X135938797Y-76782197D01*
X136126069Y-76554006D01*
X136147424Y-76514053D01*
X136295514Y-76716729D01*
X136511965Y-76915733D01*
X136763081Y-77068686D01*
X137039211Y-77169709D01*
X137054974Y-77172358D01*
X137287000Y-77051217D01*
X137287000Y-75692000D01*
X137267000Y-75692000D01*
X137267000Y-75438000D01*
X137287000Y-75438000D01*
X137287000Y-74078783D01*
X137054974Y-73957642D01*
X137039211Y-73960291D01*
X136763081Y-74061314D01*
X136511965Y-74214267D01*
X136295514Y-74413271D01*
X136147424Y-74615947D01*
X136126069Y-74575994D01*
X135938797Y-74347803D01*
X135710605Y-74160531D01*
X135450263Y-74021375D01*
X135167776Y-73935684D01*
X134874000Y-73906749D01*
X134580223Y-73935684D01*
X134297736Y-74021375D01*
X134037394Y-74160531D01*
X133809203Y-74347803D01*
X133621931Y-74575995D01*
X133604000Y-74609541D01*
X133586069Y-74575994D01*
X133398797Y-74347803D01*
X133170605Y-74160531D01*
X132910263Y-74021375D01*
X132627776Y-73935684D01*
X132334000Y-73906749D01*
X132040223Y-73935684D01*
X131757736Y-74021375D01*
X131497394Y-74160531D01*
X131269203Y-74347803D01*
X131081931Y-74575995D01*
X131064000Y-74609541D01*
X131046069Y-74575994D01*
X130858797Y-74347803D01*
X130630605Y-74160531D01*
X130370263Y-74021375D01*
X130087776Y-73935684D01*
X129794000Y-73906749D01*
X129500223Y-73935684D01*
X129217736Y-74021375D01*
X128957394Y-74160531D01*
X128729203Y-74347803D01*
X128657001Y-74435781D01*
X128601464Y-74301702D01*
X128309594Y-73864887D01*
X128179707Y-73735000D01*
X175219909Y-73735000D01*
X176328001Y-74843093D01*
X176328000Y-85944125D01*
X176324565Y-85979000D01*
X176328000Y-86013875D01*
X176328000Y-86013876D01*
X176338273Y-86118183D01*
X176378872Y-86252019D01*
X176444800Y-86375362D01*
X176533525Y-86483474D01*
X176560617Y-86505708D01*
X178868001Y-88813093D01*
X178868001Y-88863294D01*
X178738113Y-88733406D01*
X178301298Y-88441536D01*
X177815935Y-88240492D01*
X177300677Y-88138000D01*
X176775323Y-88138000D01*
X176260065Y-88240492D01*
X175774702Y-88441536D01*
X175337887Y-88733406D01*
X174966406Y-89104887D01*
X174674536Y-89541702D01*
X174473492Y-90027065D01*
X174371000Y-90542323D01*
X174371000Y-91067677D01*
X174473492Y-91582935D01*
X174674536Y-92068298D01*
X174966406Y-92505113D01*
X175337887Y-92876594D01*
X175774702Y-93168464D01*
X176260065Y-93369508D01*
X176775323Y-93472000D01*
X177300677Y-93472000D01*
X177815935Y-93369508D01*
X178301298Y-93168464D01*
X178738113Y-92876594D01*
X178868001Y-92746706D01*
X178868000Y-116803293D01*
X178738113Y-116673406D01*
X178301298Y-116381536D01*
X177815935Y-116180492D01*
X177300677Y-116078000D01*
X176775323Y-116078000D01*
X176260065Y-116180492D01*
X175774702Y-116381536D01*
X175337887Y-116673406D01*
X174966406Y-117044887D01*
X174674536Y-117481702D01*
X174473492Y-117967065D01*
X174371000Y-118482323D01*
X174371000Y-119007677D01*
X174473492Y-119522935D01*
X174674536Y-120008298D01*
X174966406Y-120445113D01*
X175337887Y-120816594D01*
X175774702Y-121108464D01*
X176260065Y-121309508D01*
X176775323Y-121412000D01*
X177300677Y-121412000D01*
X177815935Y-121309508D01*
X178301298Y-121108464D01*
X178738113Y-120816594D01*
X178868000Y-120686707D01*
X178868000Y-120990908D01*
X176560617Y-123298292D01*
X176533526Y-123320525D01*
X176511293Y-123347616D01*
X176444801Y-123428637D01*
X176378872Y-123551981D01*
X176338274Y-123685816D01*
X176324565Y-123825000D01*
X176328001Y-123859885D01*
X176328000Y-125655000D01*
X126909707Y-125655000D01*
X127039594Y-125525113D01*
X127331464Y-125088298D01*
X127532508Y-124602935D01*
X127635000Y-124087677D01*
X127635000Y-123562323D01*
X127532508Y-123047065D01*
X127331464Y-122561702D01*
X127039594Y-122124887D01*
X126668113Y-121753406D01*
X126231298Y-121461536D01*
X125745935Y-121260492D01*
X125230677Y-121158000D01*
X124705323Y-121158000D01*
X124190065Y-121260492D01*
X123704702Y-121461536D01*
X123267887Y-121753406D01*
X122896406Y-122124887D01*
X122604536Y-122561702D01*
X122403492Y-123047065D01*
X122301000Y-123562323D01*
X122301000Y-124087677D01*
X122403492Y-124602935D01*
X122604536Y-125088298D01*
X122896406Y-125525113D01*
X123026293Y-125655000D01*
X111708000Y-125655000D01*
X111708000Y-89545001D01*
X112658718Y-89545001D01*
X112662999Y-89588470D01*
X112663000Y-111221522D01*
X112658718Y-111265001D01*
X112675804Y-111438491D01*
X112726411Y-111605314D01*
X112808589Y-111759060D01*
X112891467Y-111860047D01*
X112891470Y-111860050D01*
X112919183Y-111893818D01*
X112952950Y-111921531D01*
X117241469Y-116210050D01*
X117269182Y-116243818D01*
X117302950Y-116271531D01*
X117302952Y-116271533D01*
X117363865Y-116321523D01*
X117403940Y-116354412D01*
X117557686Y-116436590D01*
X117673902Y-116471844D01*
X117724508Y-116487196D01*
X117739305Y-116488653D01*
X117854522Y-116500001D01*
X117854530Y-116500001D01*
X117897999Y-116504282D01*
X117941468Y-116500001D01*
X134704530Y-116500001D01*
X134747999Y-116504282D01*
X134791468Y-116500001D01*
X134791476Y-116500001D01*
X134921489Y-116487196D01*
X135088312Y-116436590D01*
X135242058Y-116354412D01*
X135376816Y-116243818D01*
X135404533Y-116210045D01*
X135821561Y-115793017D01*
X135856665Y-115800000D01*
X136139335Y-115800000D01*
X136169424Y-115794015D01*
X136202950Y-115821529D01*
X136202952Y-115821531D01*
X136263158Y-115870941D01*
X136303940Y-115904410D01*
X136457686Y-115986588D01*
X136624509Y-116037194D01*
X136754522Y-116049999D01*
X136754532Y-116049999D01*
X136797998Y-116054280D01*
X136841464Y-116049999D01*
X140223821Y-116049999D01*
X146360065Y-122186244D01*
X146264223Y-122195684D01*
X145981736Y-122281375D01*
X145721394Y-122420531D01*
X145493203Y-122607803D01*
X145305931Y-122835995D01*
X145288000Y-122869541D01*
X145270069Y-122835994D01*
X145082797Y-122607803D01*
X144854605Y-122420531D01*
X144594263Y-122281375D01*
X144311776Y-122195684D01*
X144018000Y-122166749D01*
X143724223Y-122195684D01*
X143441736Y-122281375D01*
X143181394Y-122420531D01*
X142953203Y-122607803D01*
X142765931Y-122835995D01*
X142748000Y-122869541D01*
X142730069Y-122835994D01*
X142542797Y-122607803D01*
X142314605Y-122420531D01*
X142054263Y-122281375D01*
X141771776Y-122195684D01*
X141478000Y-122166749D01*
X141184223Y-122195684D01*
X140901736Y-122281375D01*
X140641394Y-122420531D01*
X140413203Y-122607803D01*
X140225931Y-122835995D01*
X140208000Y-122869541D01*
X140190069Y-122835994D01*
X140002797Y-122607803D01*
X139774605Y-122420531D01*
X139514263Y-122281375D01*
X139231776Y-122195684D01*
X138938000Y-122166749D01*
X138644223Y-122195684D01*
X138361736Y-122281375D01*
X138101394Y-122420531D01*
X137873203Y-122607803D01*
X137685931Y-122835995D01*
X137546775Y-123096337D01*
X137461084Y-123378824D01*
X137439400Y-123598982D01*
X137439400Y-124051019D01*
X137461084Y-124271177D01*
X137546775Y-124553664D01*
X137685931Y-124814006D01*
X137873203Y-125042197D01*
X138101395Y-125229469D01*
X138361737Y-125368625D01*
X138644224Y-125454316D01*
X138938000Y-125483251D01*
X139231777Y-125454316D01*
X139514264Y-125368625D01*
X139774606Y-125229469D01*
X140002797Y-125042197D01*
X140190069Y-124814006D01*
X140208000Y-124780459D01*
X140225931Y-124814006D01*
X140413203Y-125042197D01*
X140641395Y-125229469D01*
X140901737Y-125368625D01*
X141184224Y-125454316D01*
X141478000Y-125483251D01*
X141771777Y-125454316D01*
X142054264Y-125368625D01*
X142314606Y-125229469D01*
X142542797Y-125042197D01*
X142730069Y-124814006D01*
X142748000Y-124780459D01*
X142765931Y-124814006D01*
X142953203Y-125042197D01*
X143181395Y-125229469D01*
X143441737Y-125368625D01*
X143724224Y-125454316D01*
X144018000Y-125483251D01*
X144311777Y-125454316D01*
X144594264Y-125368625D01*
X144854606Y-125229469D01*
X145082797Y-125042197D01*
X145270069Y-124814006D01*
X145288000Y-124780459D01*
X145305931Y-124814006D01*
X145493203Y-125042197D01*
X145721395Y-125229469D01*
X145981737Y-125368625D01*
X146264224Y-125454316D01*
X146558000Y-125483251D01*
X146851777Y-125454316D01*
X147134264Y-125368625D01*
X147394606Y-125229469D01*
X147622797Y-125042197D01*
X147810069Y-124814006D01*
X147828000Y-124780459D01*
X147845931Y-124814006D01*
X148033203Y-125042197D01*
X148261395Y-125229469D01*
X148521737Y-125368625D01*
X148804224Y-125454316D01*
X149098000Y-125483251D01*
X149391777Y-125454316D01*
X149674264Y-125368625D01*
X149934606Y-125229469D01*
X150162797Y-125042197D01*
X150350069Y-124814006D01*
X150371424Y-124774053D01*
X150519514Y-124976729D01*
X150735965Y-125175733D01*
X150987081Y-125328686D01*
X151263211Y-125429709D01*
X151278974Y-125432358D01*
X151511000Y-125311217D01*
X151511000Y-123952000D01*
X151765000Y-123952000D01*
X151765000Y-125311217D01*
X151997026Y-125432358D01*
X152012789Y-125429709D01*
X152288919Y-125328686D01*
X152540035Y-125175733D01*
X152756486Y-124976729D01*
X152908000Y-124769367D01*
X153059514Y-124976729D01*
X153275965Y-125175733D01*
X153527081Y-125328686D01*
X153803211Y-125429709D01*
X153818974Y-125432358D01*
X154051000Y-125311217D01*
X154051000Y-123952000D01*
X151765000Y-123952000D01*
X151511000Y-123952000D01*
X151491000Y-123952000D01*
X151491000Y-123698000D01*
X151511000Y-123698000D01*
X151511000Y-122338783D01*
X151765000Y-122338783D01*
X151765000Y-123698000D01*
X154051000Y-123698000D01*
X154051000Y-122338783D01*
X154305000Y-122338783D01*
X154305000Y-123698000D01*
X154325000Y-123698000D01*
X154325000Y-123952000D01*
X154305000Y-123952000D01*
X154305000Y-125311217D01*
X154537026Y-125432358D01*
X154552789Y-125429709D01*
X154828919Y-125328686D01*
X155080035Y-125175733D01*
X155296486Y-124976729D01*
X155444576Y-124774053D01*
X155465931Y-124814006D01*
X155653203Y-125042197D01*
X155881395Y-125229469D01*
X156141737Y-125368625D01*
X156424224Y-125454316D01*
X156718000Y-125483251D01*
X157011777Y-125454316D01*
X157294264Y-125368625D01*
X157554606Y-125229469D01*
X157782797Y-125042197D01*
X157970069Y-124814006D01*
X158109225Y-124553663D01*
X158194916Y-124271176D01*
X158216600Y-124051018D01*
X158216600Y-123598981D01*
X158194916Y-123378823D01*
X158109225Y-123096336D01*
X157970069Y-122835994D01*
X157782797Y-122607803D01*
X157554605Y-122420531D01*
X157294263Y-122281375D01*
X157011776Y-122195684D01*
X156718000Y-122166749D01*
X156424223Y-122195684D01*
X156141736Y-122281375D01*
X155881394Y-122420531D01*
X155653203Y-122607803D01*
X155465931Y-122835995D01*
X155444576Y-122875947D01*
X155296486Y-122673271D01*
X155080035Y-122474267D01*
X154828919Y-122321314D01*
X154552789Y-122220291D01*
X154537026Y-122217642D01*
X154305000Y-122338783D01*
X154051000Y-122338783D01*
X153818974Y-122217642D01*
X153803211Y-122220291D01*
X153527081Y-122321314D01*
X153275965Y-122474267D01*
X153059514Y-122673271D01*
X152908000Y-122880633D01*
X152756486Y-122673271D01*
X152540035Y-122474267D01*
X152288919Y-122321314D01*
X152012789Y-122220291D01*
X151997026Y-122217642D01*
X151765000Y-122338783D01*
X151511000Y-122338783D01*
X151278974Y-122217642D01*
X151263211Y-122220291D01*
X150987081Y-122321314D01*
X150735965Y-122474267D01*
X150519514Y-122673271D01*
X150371424Y-122875947D01*
X150350069Y-122835994D01*
X150162797Y-122607803D01*
X149934605Y-122420531D01*
X149674263Y-122281375D01*
X149391776Y-122195684D01*
X149098000Y-122166749D01*
X148866526Y-122189548D01*
X141246931Y-114569953D01*
X141219216Y-114536182D01*
X141084458Y-114425588D01*
X140930712Y-114343410D01*
X140763889Y-114292804D01*
X140633876Y-114279999D01*
X140633868Y-114279999D01*
X140590399Y-114275718D01*
X140546930Y-114279999D01*
X137433000Y-114279999D01*
X137433000Y-114223665D01*
X137377853Y-113946426D01*
X137269680Y-113685273D01*
X137112637Y-113450241D01*
X136912759Y-113250363D01*
X136677727Y-113093320D01*
X136416574Y-112985147D01*
X136139335Y-112930000D01*
X136083001Y-112930000D01*
X136083001Y-110665117D01*
X136281088Y-110747168D01*
X136596967Y-110810000D01*
X136919033Y-110810000D01*
X137234912Y-110747168D01*
X137532463Y-110623918D01*
X137800252Y-110444987D01*
X138027987Y-110217252D01*
X138206918Y-109949463D01*
X138330168Y-109651912D01*
X138393000Y-109336033D01*
X138393000Y-109013967D01*
X138330168Y-108698088D01*
X138206918Y-108400537D01*
X138027987Y-108132748D01*
X137800252Y-107905013D01*
X137800233Y-107905000D01*
X137800252Y-107904987D01*
X138027987Y-107677252D01*
X138133059Y-107520000D01*
X142901422Y-107520000D01*
X143663000Y-108281579D01*
X143663000Y-108496486D01*
X143714304Y-108754405D01*
X143814939Y-108997359D01*
X143961038Y-109216013D01*
X144146987Y-109401962D01*
X144365641Y-109548061D01*
X144608595Y-109648696D01*
X144866514Y-109700000D01*
X145129486Y-109700000D01*
X145387405Y-109648696D01*
X145630359Y-109548061D01*
X145849013Y-109401962D01*
X146000975Y-109250000D01*
X151863479Y-109250000D01*
X151883363Y-109279759D01*
X152083241Y-109479637D01*
X152318273Y-109636680D01*
X152579426Y-109744853D01*
X152856665Y-109800000D01*
X153139335Y-109800000D01*
X153416574Y-109744853D01*
X153677727Y-109636680D01*
X153912759Y-109479637D01*
X154112637Y-109279759D01*
X154132521Y-109250000D01*
X156917287Y-109250000D01*
X156969445Y-109313555D01*
X157172725Y-109480382D01*
X157404646Y-109604347D01*
X157656294Y-109680683D01*
X157852421Y-109700000D01*
X157983579Y-109700000D01*
X158179706Y-109680683D01*
X158431354Y-109604347D01*
X158663275Y-109480382D01*
X158866555Y-109313555D01*
X159033382Y-109110275D01*
X159157347Y-108878354D01*
X159233683Y-108626706D01*
X159259459Y-108365000D01*
X159233683Y-108103294D01*
X159157347Y-107851646D01*
X159033382Y-107619725D01*
X158866555Y-107416445D01*
X158663275Y-107249618D01*
X158431354Y-107125653D01*
X158179706Y-107049317D01*
X157983579Y-107030000D01*
X157852421Y-107030000D01*
X157656294Y-107049317D01*
X157404646Y-107125653D01*
X157172725Y-107249618D01*
X156969445Y-107416445D01*
X156917287Y-107480000D01*
X154132521Y-107480000D01*
X154112637Y-107450241D01*
X153912759Y-107250363D01*
X153677727Y-107093320D01*
X153416574Y-106985147D01*
X153139335Y-106930000D01*
X152856665Y-106930000D01*
X152579426Y-106985147D01*
X152318273Y-107093320D01*
X152083241Y-107250363D01*
X151883363Y-107450241D01*
X151863479Y-107480000D01*
X146000975Y-107480000D01*
X145849013Y-107328038D01*
X145630359Y-107181939D01*
X145387405Y-107081304D01*
X145129486Y-107030000D01*
X144914579Y-107030000D01*
X143924534Y-106039956D01*
X143896817Y-106006183D01*
X143762059Y-105895589D01*
X143608313Y-105813411D01*
X143441490Y-105762805D01*
X143311477Y-105750000D01*
X143311469Y-105750000D01*
X143268000Y-105745719D01*
X143224531Y-105750000D01*
X138133059Y-105750000D01*
X138027987Y-105592748D01*
X137800252Y-105365013D01*
X137800233Y-105365000D01*
X137800252Y-105364987D01*
X138027987Y-105137252D01*
X138206918Y-104869463D01*
X138330168Y-104571912D01*
X138393000Y-104256033D01*
X138393000Y-103933967D01*
X138330168Y-103618088D01*
X138206918Y-103320537D01*
X138027987Y-103052748D01*
X137800252Y-102825013D01*
X137800233Y-102825000D01*
X137800252Y-102824987D01*
X138027987Y-102597252D01*
X138206918Y-102329463D01*
X138330168Y-102031912D01*
X138393000Y-101716033D01*
X138393000Y-101393967D01*
X138330168Y-101078088D01*
X138293680Y-100989999D01*
X141451421Y-100989999D01*
X143664600Y-103203179D01*
X143656541Y-103285000D01*
X143682317Y-103546706D01*
X143758653Y-103798354D01*
X143882618Y-104030275D01*
X144049445Y-104233555D01*
X144252725Y-104400382D01*
X144484646Y-104524347D01*
X144736294Y-104600683D01*
X144932421Y-104620000D01*
X145063579Y-104620000D01*
X145259706Y-104600683D01*
X145511354Y-104524347D01*
X145743275Y-104400382D01*
X145946555Y-104233555D01*
X145998713Y-104170000D01*
X151810025Y-104170000D01*
X151883363Y-104279759D01*
X152083241Y-104479637D01*
X152318273Y-104636680D01*
X152579426Y-104744853D01*
X152856665Y-104800000D01*
X153139335Y-104800000D01*
X153416574Y-104744853D01*
X153677727Y-104636680D01*
X153912759Y-104479637D01*
X154112637Y-104279759D01*
X154132521Y-104250000D01*
X156917287Y-104250000D01*
X156969445Y-104313555D01*
X157172725Y-104480382D01*
X157404646Y-104604347D01*
X157656294Y-104680683D01*
X157852421Y-104700000D01*
X157983579Y-104700000D01*
X158179706Y-104680683D01*
X158431354Y-104604347D01*
X158663275Y-104480382D01*
X158866555Y-104313555D01*
X158888947Y-104286269D01*
X162256336Y-104286269D01*
X162315797Y-104520037D01*
X162554242Y-104630934D01*
X162809740Y-104693183D01*
X163072473Y-104704390D01*
X163332344Y-104664125D01*
X163579366Y-104573935D01*
X163680203Y-104520037D01*
X163739664Y-104286269D01*
X162998000Y-103544605D01*
X162256336Y-104286269D01*
X158888947Y-104286269D01*
X159033382Y-104110275D01*
X159157347Y-103878354D01*
X159233683Y-103626706D01*
X159252123Y-103439473D01*
X161658610Y-103439473D01*
X161698875Y-103699344D01*
X161789065Y-103946366D01*
X161842963Y-104047203D01*
X162076731Y-104106664D01*
X162818395Y-103365000D01*
X163177605Y-103365000D01*
X163919269Y-104106664D01*
X164153037Y-104047203D01*
X164263934Y-103808758D01*
X164326183Y-103553260D01*
X164337390Y-103290527D01*
X164297125Y-103030656D01*
X164206935Y-102783634D01*
X164153037Y-102682797D01*
X163919269Y-102623336D01*
X163177605Y-103365000D01*
X162818395Y-103365000D01*
X162076731Y-102623336D01*
X161842963Y-102682797D01*
X161732066Y-102921242D01*
X161669817Y-103176740D01*
X161658610Y-103439473D01*
X159252123Y-103439473D01*
X159259459Y-103365000D01*
X159233683Y-103103294D01*
X159157347Y-102851646D01*
X159033382Y-102619725D01*
X158888948Y-102443731D01*
X162256336Y-102443731D01*
X162998000Y-103185395D01*
X163739664Y-102443731D01*
X163681241Y-102214040D01*
X166606091Y-102214040D01*
X166700930Y-102478881D01*
X166845615Y-102720131D01*
X167034586Y-102928519D01*
X167260580Y-103096037D01*
X167514913Y-103216246D01*
X167648961Y-103256904D01*
X167871000Y-103134915D01*
X167871000Y-101992000D01*
X166727376Y-101992000D01*
X166606091Y-102214040D01*
X163681241Y-102214040D01*
X163680203Y-102209963D01*
X163441758Y-102099066D01*
X163186260Y-102036817D01*
X162923527Y-102025610D01*
X162663656Y-102065875D01*
X162416634Y-102156065D01*
X162315797Y-102209963D01*
X162256336Y-102443731D01*
X158888948Y-102443731D01*
X158866555Y-102416445D01*
X158663275Y-102249618D01*
X158431354Y-102125653D01*
X158179706Y-102049317D01*
X157983579Y-102030000D01*
X157852421Y-102030000D01*
X157656294Y-102049317D01*
X157404646Y-102125653D01*
X157172725Y-102249618D01*
X156969445Y-102416445D01*
X156917287Y-102480000D01*
X154132521Y-102480000D01*
X154112637Y-102450241D01*
X153912759Y-102250363D01*
X153677727Y-102093320D01*
X153416574Y-101985147D01*
X153139335Y-101930000D01*
X152856665Y-101930000D01*
X152579426Y-101985147D01*
X152318273Y-102093320D01*
X152083241Y-102250363D01*
X151933604Y-102400000D01*
X145998713Y-102400000D01*
X145946555Y-102336445D01*
X145743275Y-102169618D01*
X145511354Y-102045653D01*
X145259706Y-101969317D01*
X145063579Y-101950000D01*
X144932421Y-101950000D01*
X144916179Y-101951600D01*
X142474533Y-99509955D01*
X142446816Y-99476182D01*
X142312058Y-99365588D01*
X142158312Y-99283410D01*
X141991489Y-99232804D01*
X141861476Y-99219999D01*
X141861468Y-99219999D01*
X141817999Y-99215718D01*
X141774530Y-99219999D01*
X134685683Y-99219999D01*
X134642214Y-99215718D01*
X134598745Y-99219999D01*
X134598737Y-99219999D01*
X134468724Y-99232804D01*
X134301900Y-99283410D01*
X134148155Y-99365588D01*
X134047167Y-99448467D01*
X134047165Y-99448469D01*
X134013397Y-99476182D01*
X133985684Y-99509950D01*
X130869019Y-102626616D01*
X130876072Y-102555000D01*
X130876072Y-100555000D01*
X130863812Y-100430518D01*
X130827502Y-100310820D01*
X130768537Y-100200506D01*
X130689185Y-100103815D01*
X130592494Y-100024463D01*
X130482180Y-99965498D01*
X130362482Y-99929188D01*
X130238000Y-99916928D01*
X128238000Y-99916928D01*
X128113518Y-99929188D01*
X127993820Y-99965498D01*
X127883506Y-100024463D01*
X127786815Y-100103815D01*
X127707463Y-100200506D01*
X127648498Y-100310820D01*
X127612188Y-100430518D01*
X127599928Y-100555000D01*
X127599928Y-102555000D01*
X127612188Y-102679482D01*
X127648498Y-102799180D01*
X127707463Y-102909494D01*
X127786815Y-103006185D01*
X127883506Y-103085537D01*
X127929630Y-103110191D01*
X127789082Y-103320537D01*
X127665832Y-103618088D01*
X127633784Y-103779206D01*
X127624534Y-103769956D01*
X127596817Y-103736183D01*
X127462059Y-103625589D01*
X127308313Y-103543411D01*
X127141490Y-103492805D01*
X127011477Y-103480000D01*
X127011469Y-103480000D01*
X126968000Y-103475719D01*
X126924531Y-103480000D01*
X122000975Y-103480000D01*
X121849013Y-103328038D01*
X121630359Y-103181939D01*
X121387405Y-103081304D01*
X121129486Y-103030000D01*
X120914578Y-103030000D01*
X120654532Y-102769954D01*
X120626817Y-102736183D01*
X120492059Y-102625589D01*
X120338313Y-102543411D01*
X120171490Y-102492805D01*
X120041477Y-102480000D01*
X120041469Y-102480000D01*
X119998000Y-102475719D01*
X119954531Y-102480000D01*
X116132521Y-102480000D01*
X116112637Y-102450241D01*
X115912759Y-102250363D01*
X115883000Y-102230479D01*
X115883000Y-100447975D01*
X116034962Y-100296013D01*
X116181061Y-100077359D01*
X116281696Y-99834405D01*
X116333000Y-99576486D01*
X116333000Y-99313514D01*
X116281696Y-99055595D01*
X116181061Y-98812641D01*
X116034962Y-98593987D01*
X115849013Y-98408038D01*
X115630359Y-98261939D01*
X115387405Y-98161304D01*
X115129486Y-98110000D01*
X114866514Y-98110000D01*
X114608595Y-98161304D01*
X114432999Y-98234038D01*
X114432999Y-95576741D01*
X114484646Y-95604347D01*
X114736294Y-95680683D01*
X114932421Y-95700000D01*
X115063579Y-95700000D01*
X115259706Y-95680683D01*
X115511354Y-95604347D01*
X115743275Y-95480382D01*
X115946555Y-95313555D01*
X116113382Y-95110275D01*
X116237347Y-94878354D01*
X116313683Y-94626706D01*
X116339459Y-94365000D01*
X116313683Y-94103294D01*
X116237347Y-93851646D01*
X116113382Y-93619725D01*
X115946555Y-93416445D01*
X115883000Y-93364287D01*
X115883000Y-92010059D01*
X116040252Y-91904987D01*
X116267987Y-91677252D01*
X116336309Y-91575000D01*
X139034429Y-91575000D01*
X139034429Y-95395000D01*
X152961572Y-95395000D01*
X152961572Y-91575000D01*
X139034429Y-91575000D01*
X116336309Y-91575000D01*
X116446918Y-91409463D01*
X116570168Y-91111912D01*
X116633000Y-90796033D01*
X116633000Y-90473967D01*
X116570168Y-90158088D01*
X116446918Y-89860537D01*
X116267987Y-89592748D01*
X116040252Y-89365013D01*
X116040233Y-89365000D01*
X116040252Y-89364987D01*
X116267987Y-89137252D01*
X116446918Y-88869463D01*
X116570168Y-88571912D01*
X116633000Y-88256033D01*
X116633000Y-87980001D01*
X137684532Y-87980001D01*
X137728001Y-87984282D01*
X137771470Y-87980001D01*
X149034523Y-87980001D01*
X149077999Y-87984283D01*
X149121476Y-87980001D01*
X154711425Y-87980001D01*
X167331749Y-100600325D01*
X167260580Y-100633963D01*
X167034586Y-100801481D01*
X166845615Y-101009869D01*
X166700930Y-101251119D01*
X166606091Y-101515960D01*
X166727376Y-101738000D01*
X167871000Y-101738000D01*
X167871000Y-101718000D01*
X168125000Y-101718000D01*
X168125000Y-101738000D01*
X168145000Y-101738000D01*
X168145000Y-101992000D01*
X168125000Y-101992000D01*
X168125000Y-103134915D01*
X168347039Y-103256904D01*
X168481087Y-103216246D01*
X168735420Y-103096037D01*
X168961414Y-102928519D01*
X169150385Y-102720131D01*
X169263292Y-102531869D01*
X174373001Y-107641578D01*
X174373002Y-111822873D01*
X174066892Y-111742616D01*
X173745405Y-111723282D01*
X173426325Y-111767039D01*
X173121912Y-111872205D01*
X172947956Y-111965186D01*
X172852192Y-112229587D01*
X173808000Y-113185395D01*
X173822143Y-113171253D01*
X174001748Y-113350858D01*
X173987605Y-113365000D01*
X174001748Y-113379143D01*
X173822143Y-113558748D01*
X173808000Y-113544605D01*
X173793858Y-113558748D01*
X173614253Y-113379143D01*
X173628395Y-113365000D01*
X172672587Y-112409192D01*
X172610720Y-112431600D01*
X172537987Y-112322748D01*
X172310252Y-112095013D01*
X172153000Y-111989941D01*
X172153000Y-111907310D01*
X172140195Y-111777297D01*
X172089589Y-111610474D01*
X172007411Y-111456728D01*
X171896817Y-111321970D01*
X171762058Y-111211376D01*
X171608312Y-111129198D01*
X171441489Y-111078592D01*
X171268000Y-111061505D01*
X171094510Y-111078592D01*
X170927687Y-111129198D01*
X170773941Y-111211376D01*
X170639183Y-111321970D01*
X170528589Y-111456729D01*
X170446411Y-111610475D01*
X170395805Y-111777298D01*
X170383000Y-111907311D01*
X170383000Y-111989940D01*
X170225748Y-112095013D01*
X169998013Y-112322748D01*
X169998000Y-112322767D01*
X169997987Y-112322748D01*
X169770252Y-112095013D01*
X169502463Y-111916082D01*
X169204912Y-111792832D01*
X168889033Y-111730000D01*
X168566967Y-111730000D01*
X168251088Y-111792832D01*
X167953537Y-111916082D01*
X167685748Y-112095013D01*
X167458013Y-112322748D01*
X167458000Y-112322767D01*
X167457987Y-112322748D01*
X167230252Y-112095013D01*
X166962463Y-111916082D01*
X166664912Y-111792832D01*
X166349033Y-111730000D01*
X166026967Y-111730000D01*
X165711088Y-111792832D01*
X165413537Y-111916082D01*
X165145748Y-112095013D01*
X164918013Y-112322748D01*
X164739082Y-112590537D01*
X164615832Y-112888088D01*
X164553000Y-113203967D01*
X164553000Y-113526033D01*
X164588355Y-113703777D01*
X163883000Y-112998422D01*
X163883000Y-110242956D01*
X163954523Y-110250000D01*
X163954533Y-110250000D01*
X163997999Y-110254281D01*
X164041465Y-110250000D01*
X166863479Y-110250000D01*
X166883363Y-110279759D01*
X167083241Y-110479637D01*
X167318273Y-110636680D01*
X167579426Y-110744853D01*
X167856665Y-110800000D01*
X168139335Y-110800000D01*
X168416574Y-110744853D01*
X168677727Y-110636680D01*
X168912759Y-110479637D01*
X169112637Y-110279759D01*
X169269680Y-110044727D01*
X169377853Y-109783574D01*
X169433000Y-109506335D01*
X169433000Y-109223665D01*
X169377853Y-108946426D01*
X169269680Y-108685273D01*
X169112637Y-108450241D01*
X168912759Y-108250363D01*
X168677727Y-108093320D01*
X168416574Y-107985147D01*
X168139335Y-107930000D01*
X167856665Y-107930000D01*
X167579426Y-107985147D01*
X167318273Y-108093320D01*
X167083241Y-108250363D01*
X166883363Y-108450241D01*
X166863479Y-108480000D01*
X164364578Y-108480000D01*
X164354536Y-108469958D01*
X164354531Y-108469952D01*
X164333000Y-108448421D01*
X164333000Y-108233514D01*
X164281696Y-107975595D01*
X164181061Y-107732641D01*
X164034962Y-107513987D01*
X163849013Y-107328038D01*
X163630359Y-107181939D01*
X163387405Y-107081304D01*
X163129486Y-107030000D01*
X162866514Y-107030000D01*
X162608595Y-107081304D01*
X162365641Y-107181939D01*
X162146987Y-107328038D01*
X161961038Y-107513987D01*
X161814939Y-107732641D01*
X161714304Y-107975595D01*
X161663000Y-108233514D01*
X161663000Y-108496486D01*
X161714304Y-108754405D01*
X161814939Y-108997359D01*
X161961038Y-109216013D01*
X162113000Y-109367975D01*
X162113001Y-113321521D01*
X162108719Y-113365000D01*
X162125805Y-113538490D01*
X162176412Y-113705313D01*
X162258590Y-113859059D01*
X162341468Y-113960046D01*
X162341471Y-113960049D01*
X162369184Y-113993817D01*
X162402951Y-114021529D01*
X165113000Y-116731579D01*
X165113001Y-119106020D01*
X162029474Y-122189548D01*
X161798000Y-122166749D01*
X161504223Y-122195684D01*
X161221736Y-122281375D01*
X160961394Y-122420531D01*
X160733203Y-122607803D01*
X160545931Y-122835995D01*
X160406775Y-123096337D01*
X160321084Y-123378824D01*
X160299400Y-123598982D01*
X160299400Y-124051019D01*
X160321084Y-124271177D01*
X160406775Y-124553664D01*
X160545931Y-124814006D01*
X160733203Y-125042197D01*
X160961395Y-125229469D01*
X161221737Y-125368625D01*
X161504224Y-125454316D01*
X161798000Y-125483251D01*
X162091777Y-125454316D01*
X162374264Y-125368625D01*
X162634606Y-125229469D01*
X162862797Y-125042197D01*
X163050069Y-124814006D01*
X163068000Y-124780459D01*
X163085931Y-124814006D01*
X163273203Y-125042197D01*
X163501395Y-125229469D01*
X163761737Y-125368625D01*
X164044224Y-125454316D01*
X164338000Y-125483251D01*
X164631777Y-125454316D01*
X164914264Y-125368625D01*
X165174606Y-125229469D01*
X165402797Y-125042197D01*
X165590069Y-124814006D01*
X165608000Y-124780459D01*
X165625931Y-124814006D01*
X165813203Y-125042197D01*
X166041395Y-125229469D01*
X166301737Y-125368625D01*
X166584224Y-125454316D01*
X166878000Y-125483251D01*
X167171777Y-125454316D01*
X167454264Y-125368625D01*
X167714606Y-125229469D01*
X167942797Y-125042197D01*
X168130069Y-124814006D01*
X168148000Y-124780459D01*
X168165931Y-124814006D01*
X168353203Y-125042197D01*
X168581395Y-125229469D01*
X168841737Y-125368625D01*
X169124224Y-125454316D01*
X169418000Y-125483251D01*
X169711777Y-125454316D01*
X169994264Y-125368625D01*
X170254606Y-125229469D01*
X170482797Y-125042197D01*
X170670069Y-124814006D01*
X170688000Y-124780459D01*
X170705931Y-124814006D01*
X170893203Y-125042197D01*
X171121395Y-125229469D01*
X171381737Y-125368625D01*
X171664224Y-125454316D01*
X171958000Y-125483251D01*
X172251777Y-125454316D01*
X172534264Y-125368625D01*
X172794606Y-125229469D01*
X173022797Y-125042197D01*
X173210069Y-124814006D01*
X173228000Y-124780459D01*
X173245931Y-124814006D01*
X173433203Y-125042197D01*
X173661395Y-125229469D01*
X173921737Y-125368625D01*
X174204224Y-125454316D01*
X174498000Y-125483251D01*
X174791777Y-125454316D01*
X175074264Y-125368625D01*
X175334606Y-125229469D01*
X175562797Y-125042197D01*
X175750069Y-124814006D01*
X175889225Y-124553663D01*
X175974916Y-124271176D01*
X175996600Y-124051018D01*
X175996600Y-123598981D01*
X175974916Y-123378823D01*
X175889225Y-123096336D01*
X175750069Y-122835994D01*
X175562797Y-122607803D01*
X175334605Y-122420531D01*
X175074263Y-122281375D01*
X174791776Y-122195684D01*
X174498000Y-122166749D01*
X174266526Y-122189548D01*
X173790934Y-121713956D01*
X173763217Y-121680183D01*
X173628459Y-121569589D01*
X173474713Y-121487411D01*
X173384678Y-121460099D01*
X169613000Y-117688422D01*
X169613000Y-114740059D01*
X169770252Y-114634987D01*
X169997987Y-114407252D01*
X169998000Y-114407233D01*
X169998013Y-114407252D01*
X170225748Y-114634987D01*
X170493537Y-114813918D01*
X170791088Y-114937168D01*
X171106967Y-115000000D01*
X171429033Y-115000000D01*
X171614525Y-114963104D01*
X171672952Y-115021531D01*
X171672958Y-115021536D01*
X172061467Y-115410045D01*
X172089184Y-115443818D01*
X172223942Y-115554412D01*
X172377688Y-115636590D01*
X172493904Y-115671844D01*
X172544510Y-115687196D01*
X172559307Y-115688653D01*
X172674524Y-115700001D01*
X172674532Y-115700001D01*
X172718001Y-115704282D01*
X172761470Y-115700001D01*
X174460532Y-115700001D01*
X174504001Y-115704282D01*
X174547470Y-115700001D01*
X174547478Y-115700001D01*
X174677491Y-115687196D01*
X174844314Y-115636590D01*
X174998060Y-115554412D01*
X175132818Y-115443818D01*
X175160535Y-115410045D01*
X175853050Y-114717531D01*
X175886818Y-114689818D01*
X175997412Y-114555060D01*
X176079590Y-114401314D01*
X176130196Y-114234491D01*
X176143001Y-114104478D01*
X176143001Y-114104468D01*
X176147282Y-114061002D01*
X176143001Y-114017535D01*
X176143001Y-107318468D01*
X176147282Y-107274999D01*
X176143001Y-107231530D01*
X176143001Y-107231522D01*
X176130196Y-107101509D01*
X176079590Y-106934686D01*
X175997412Y-106780940D01*
X175886818Y-106646182D01*
X175853052Y-106618471D01*
X155734535Y-86499955D01*
X155706820Y-86466184D01*
X155572062Y-86355590D01*
X155418316Y-86273412D01*
X155251493Y-86222806D01*
X155121480Y-86210001D01*
X155121472Y-86210001D01*
X155078003Y-86205720D01*
X155034534Y-86210001D01*
X149962999Y-86210001D01*
X149962999Y-86111579D01*
X152111475Y-83963104D01*
X152296967Y-84000000D01*
X152619033Y-84000000D01*
X152934912Y-83937168D01*
X153232463Y-83813918D01*
X153500252Y-83634987D01*
X153727987Y-83407252D01*
X153728000Y-83407233D01*
X153728013Y-83407252D01*
X153955748Y-83634987D01*
X154223537Y-83813918D01*
X154521088Y-83937168D01*
X154836967Y-84000000D01*
X155159033Y-84000000D01*
X155474912Y-83937168D01*
X155772463Y-83813918D01*
X156040252Y-83634987D01*
X156267987Y-83407252D01*
X156268000Y-83407233D01*
X156268013Y-83407252D01*
X156495748Y-83634987D01*
X156763537Y-83813918D01*
X157061088Y-83937168D01*
X157376967Y-84000000D01*
X157699033Y-84000000D01*
X158014912Y-83937168D01*
X158312463Y-83813918D01*
X158580252Y-83634987D01*
X158807987Y-83407252D01*
X158808000Y-83407233D01*
X158808013Y-83407252D01*
X159035748Y-83634987D01*
X159303537Y-83813918D01*
X159601088Y-83937168D01*
X159916967Y-84000000D01*
X160239033Y-84000000D01*
X160554912Y-83937168D01*
X160852463Y-83813918D01*
X161120252Y-83634987D01*
X161347987Y-83407252D01*
X161453059Y-83250000D01*
X162726931Y-83250000D01*
X162770400Y-83254281D01*
X162813869Y-83250000D01*
X162813877Y-83250000D01*
X162943890Y-83237195D01*
X163110713Y-83186589D01*
X163264459Y-83104411D01*
X163399217Y-82993817D01*
X163426934Y-82960044D01*
X169186526Y-77200452D01*
X169418000Y-77223251D01*
X169711777Y-77194316D01*
X169994264Y-77108625D01*
X169998357Y-77106437D01*
X170078000Y-77114281D01*
X170251490Y-77097195D01*
X170418313Y-77046588D01*
X170572059Y-76964410D01*
X170706817Y-76853817D01*
X170817410Y-76719059D01*
X170826867Y-76701366D01*
X170893203Y-76782197D01*
X171121395Y-76969469D01*
X171381737Y-77108625D01*
X171664224Y-77194316D01*
X171958000Y-77223251D01*
X172251777Y-77194316D01*
X172534264Y-77108625D01*
X172794606Y-76969469D01*
X173022797Y-76782197D01*
X173210069Y-76554006D01*
X173228000Y-76520459D01*
X173245931Y-76554006D01*
X173433203Y-76782197D01*
X173661395Y-76969469D01*
X173921737Y-77108625D01*
X174204224Y-77194316D01*
X174498000Y-77223251D01*
X174791777Y-77194316D01*
X175074264Y-77108625D01*
X175334606Y-76969469D01*
X175562797Y-76782197D01*
X175750069Y-76554006D01*
X175889225Y-76293663D01*
X175974916Y-76011176D01*
X175996600Y-75791018D01*
X175996600Y-75338981D01*
X175974916Y-75118823D01*
X175889225Y-74836336D01*
X175750069Y-74575994D01*
X175562797Y-74347803D01*
X175334605Y-74160531D01*
X175074263Y-74021375D01*
X174791776Y-73935684D01*
X174498000Y-73906749D01*
X174204223Y-73935684D01*
X173921736Y-74021375D01*
X173661394Y-74160531D01*
X173433203Y-74347803D01*
X173245931Y-74575995D01*
X173228000Y-74609541D01*
X173210069Y-74575994D01*
X173022797Y-74347803D01*
X172794605Y-74160531D01*
X172534263Y-74021375D01*
X172251776Y-73935684D01*
X171958000Y-73906749D01*
X171664223Y-73935684D01*
X171381736Y-74021375D01*
X171121394Y-74160531D01*
X170893203Y-74347803D01*
X170705931Y-74575995D01*
X170688000Y-74609541D01*
X170670069Y-74575994D01*
X170482797Y-74347803D01*
X170254605Y-74160531D01*
X169994263Y-74021375D01*
X169711776Y-73935684D01*
X169418000Y-73906749D01*
X169124223Y-73935684D01*
X168841736Y-74021375D01*
X168581394Y-74160531D01*
X168353203Y-74347803D01*
X168165931Y-74575995D01*
X168148000Y-74609541D01*
X168130069Y-74575994D01*
X167942797Y-74347803D01*
X167714605Y-74160531D01*
X167454263Y-74021375D01*
X167171776Y-73935684D01*
X166878000Y-73906749D01*
X166584223Y-73935684D01*
X166301736Y-74021375D01*
X166041394Y-74160531D01*
X165813203Y-74347803D01*
X165625931Y-74575995D01*
X165608000Y-74609541D01*
X165590069Y-74575994D01*
X165402797Y-74347803D01*
X165174605Y-74160531D01*
X164914263Y-74021375D01*
X164631776Y-73935684D01*
X164338000Y-73906749D01*
X164044223Y-73935684D01*
X163761736Y-74021375D01*
X163501394Y-74160531D01*
X163273203Y-74347803D01*
X163085931Y-74575995D01*
X163068000Y-74609541D01*
X163050069Y-74575994D01*
X162862797Y-74347803D01*
X162634605Y-74160531D01*
X162374263Y-74021375D01*
X162091776Y-73935684D01*
X161798000Y-73906749D01*
X161504223Y-73935684D01*
X161221736Y-74021375D01*
X160961394Y-74160531D01*
X160733203Y-74347803D01*
X160545931Y-74575995D01*
X160528000Y-74609541D01*
X160510069Y-74575994D01*
X160322797Y-74347803D01*
X160094605Y-74160531D01*
X159834263Y-74021375D01*
X159551776Y-73935684D01*
X159258000Y-73906749D01*
X158964223Y-73935684D01*
X158681736Y-74021375D01*
X158421394Y-74160531D01*
X158193203Y-74347803D01*
X158005931Y-74575995D01*
X157988000Y-74609541D01*
X157970069Y-74575994D01*
X157782797Y-74347803D01*
X157554605Y-74160531D01*
X157294263Y-74021375D01*
X157011776Y-73935684D01*
X156718000Y-73906749D01*
X156424223Y-73935684D01*
X156141736Y-74021375D01*
X155881394Y-74160531D01*
X155653203Y-74347803D01*
X155465931Y-74575995D01*
X155326775Y-74836337D01*
X155241084Y-75118824D01*
X155219400Y-75338982D01*
X155219400Y-75791019D01*
X155241084Y-76011177D01*
X155326775Y-76293664D01*
X155465931Y-76554006D01*
X155653203Y-76782197D01*
X155881395Y-76969469D01*
X156141737Y-77108625D01*
X156424224Y-77194316D01*
X156718000Y-77223251D01*
X157011777Y-77194316D01*
X157294264Y-77108625D01*
X157554606Y-76969469D01*
X157782797Y-76782197D01*
X157970069Y-76554006D01*
X157988000Y-76520459D01*
X158005931Y-76554006D01*
X158193203Y-76782197D01*
X158421395Y-76969469D01*
X158681737Y-77108625D01*
X158964224Y-77194316D01*
X159258000Y-77223251D01*
X159551777Y-77194316D01*
X159834264Y-77108625D01*
X160094606Y-76969469D01*
X160322797Y-76782197D01*
X160510069Y-76554006D01*
X160528000Y-76520459D01*
X160545931Y-76554006D01*
X160733203Y-76782197D01*
X160961395Y-76969469D01*
X161221737Y-77108625D01*
X161504224Y-77194316D01*
X161600066Y-77203756D01*
X161323822Y-77480000D01*
X159041465Y-77480000D01*
X158997999Y-77475719D01*
X158954533Y-77480000D01*
X158954523Y-77480000D01*
X158824510Y-77492805D01*
X158657687Y-77543411D01*
X158503941Y-77625589D01*
X158474452Y-77649790D01*
X158402953Y-77708468D01*
X158402951Y-77708470D01*
X158369183Y-77736183D01*
X158341470Y-77769951D01*
X155344525Y-80766897D01*
X155159033Y-80730000D01*
X154836967Y-80730000D01*
X154521088Y-80792832D01*
X154223537Y-80916082D01*
X153955748Y-81095013D01*
X153728013Y-81322748D01*
X153728000Y-81322767D01*
X153727987Y-81322748D01*
X153500252Y-81095013D01*
X153232463Y-80916082D01*
X152934912Y-80792832D01*
X152619033Y-80730000D01*
X152296967Y-80730000D01*
X151981088Y-80792832D01*
X151683537Y-80916082D01*
X151415748Y-81095013D01*
X151188013Y-81322748D01*
X151115280Y-81431600D01*
X151053413Y-81409192D01*
X150097605Y-82365000D01*
X150111748Y-82379143D01*
X149932143Y-82558748D01*
X149918000Y-82544605D01*
X148962192Y-83500413D01*
X149057956Y-83764814D01*
X149347571Y-83905704D01*
X149599631Y-83971790D01*
X148482955Y-85088467D01*
X148449182Y-85116184D01*
X148338588Y-85250943D01*
X148256410Y-85404689D01*
X148205804Y-85571512D01*
X148192999Y-85701525D01*
X148192999Y-85701532D01*
X148188718Y-85745001D01*
X148192999Y-85788471D01*
X148192999Y-86210001D01*
X138693000Y-86210001D01*
X138693000Y-83740059D01*
X138850252Y-83634987D01*
X139077987Y-83407252D01*
X139256918Y-83139463D01*
X139380168Y-82841912D01*
X139443000Y-82526033D01*
X139443000Y-82427595D01*
X148276282Y-82427595D01*
X148320039Y-82746675D01*
X148425205Y-83051088D01*
X148518186Y-83225044D01*
X148782587Y-83320808D01*
X149738395Y-82365000D01*
X148782587Y-81409192D01*
X148518186Y-81504956D01*
X148377296Y-81794571D01*
X148295616Y-82106108D01*
X148276282Y-82427595D01*
X139443000Y-82427595D01*
X139443000Y-82203967D01*
X139380168Y-81888088D01*
X139343680Y-81799999D01*
X142332932Y-81799999D01*
X142376401Y-81804280D01*
X142419870Y-81799999D01*
X142419878Y-81799999D01*
X142549891Y-81787194D01*
X142716714Y-81736588D01*
X142870460Y-81654410D01*
X143005218Y-81543816D01*
X143032935Y-81510043D01*
X143313391Y-81229587D01*
X148962192Y-81229587D01*
X149918000Y-82185395D01*
X150873808Y-81229587D01*
X150778044Y-80965186D01*
X150488429Y-80824296D01*
X150176892Y-80742616D01*
X149855405Y-80723282D01*
X149536325Y-80767039D01*
X149231912Y-80872205D01*
X149057956Y-80965186D01*
X148962192Y-81229587D01*
X143313391Y-81229587D01*
X147342526Y-77200452D01*
X147574000Y-77223251D01*
X147867777Y-77194316D01*
X148150264Y-77108625D01*
X148410606Y-76969469D01*
X148638797Y-76782197D01*
X148826069Y-76554006D01*
X148844000Y-76520459D01*
X148861931Y-76554006D01*
X149049203Y-76782197D01*
X149277395Y-76969469D01*
X149537737Y-77108625D01*
X149820224Y-77194316D01*
X150114000Y-77223251D01*
X150407777Y-77194316D01*
X150690264Y-77108625D01*
X150950606Y-76969469D01*
X151178797Y-76782197D01*
X151366069Y-76554006D01*
X151384000Y-76520459D01*
X151401931Y-76554006D01*
X151589203Y-76782197D01*
X151817395Y-76969469D01*
X152077737Y-77108625D01*
X152360224Y-77194316D01*
X152654000Y-77223251D01*
X152947777Y-77194316D01*
X153230264Y-77108625D01*
X153490606Y-76969469D01*
X153718797Y-76782197D01*
X153906069Y-76554006D01*
X154045225Y-76293663D01*
X154130916Y-76011176D01*
X154152600Y-75791018D01*
X154152600Y-75338981D01*
X154130916Y-75118823D01*
X154045225Y-74836336D01*
X153906069Y-74575994D01*
X153718797Y-74347803D01*
X153490605Y-74160531D01*
X153230263Y-74021375D01*
X152947776Y-73935684D01*
X152654000Y-73906749D01*
X152360223Y-73935684D01*
X152077736Y-74021375D01*
X151817394Y-74160531D01*
X151589203Y-74347803D01*
X151401931Y-74575995D01*
X151384000Y-74609541D01*
X151366069Y-74575994D01*
X151178797Y-74347803D01*
X150950605Y-74160531D01*
X150690263Y-74021375D01*
X150407776Y-73935684D01*
X150114000Y-73906749D01*
X149820223Y-73935684D01*
X149537736Y-74021375D01*
X149277394Y-74160531D01*
X149049203Y-74347803D01*
X148861931Y-74575995D01*
X148844000Y-74609541D01*
X148826069Y-74575994D01*
X148638797Y-74347803D01*
X148410605Y-74160531D01*
X148150263Y-74021375D01*
X147867776Y-73935684D01*
X147574000Y-73906749D01*
X147280223Y-73935684D01*
X146997736Y-74021375D01*
X146737394Y-74160531D01*
X146509203Y-74347803D01*
X146321931Y-74575995D01*
X146304000Y-74609541D01*
X146286069Y-74575994D01*
X146098797Y-74347803D01*
X145870605Y-74160531D01*
X145610263Y-74021375D01*
X145327776Y-73935684D01*
X145034000Y-73906749D01*
X144740223Y-73935684D01*
X144457736Y-74021375D01*
X144197394Y-74160531D01*
X143969203Y-74347803D01*
X143781931Y-74575995D01*
X143764000Y-74609541D01*
X143746069Y-74575994D01*
X143558797Y-74347803D01*
X143330605Y-74160531D01*
X143070263Y-74021375D01*
X142787776Y-73935684D01*
X142494000Y-73906749D01*
X142200223Y-73935684D01*
X141917736Y-74021375D01*
X141657394Y-74160531D01*
X141429203Y-74347803D01*
X141241931Y-74575995D01*
X141224000Y-74609541D01*
X141206069Y-74575994D01*
X141018797Y-74347803D01*
X140790605Y-74160531D01*
X140530263Y-74021375D01*
X140247776Y-73935684D01*
X139954000Y-73906749D01*
X139660223Y-73935684D01*
X139377736Y-74021375D01*
X139117394Y-74160531D01*
X138889203Y-74347803D01*
X138701931Y-74575995D01*
X138680576Y-74615947D01*
X138532486Y-74413271D01*
X138316035Y-74214267D01*
X138064919Y-74061314D01*
X137788789Y-73960291D01*
X137773026Y-73957642D01*
X137541000Y-74078783D01*
X137541000Y-75438000D01*
X137561000Y-75438000D01*
X137561000Y-75692000D01*
X137541000Y-75692000D01*
X137541000Y-77051217D01*
X137773026Y-77172358D01*
X137788789Y-77169709D01*
X138064919Y-77068686D01*
X138316035Y-76915733D01*
X138532486Y-76716729D01*
X138680576Y-76514053D01*
X138701931Y-76554006D01*
X138889203Y-76782197D01*
X139117395Y-76969469D01*
X139377737Y-77108625D01*
X139660224Y-77194316D01*
X139954000Y-77223251D01*
X140247777Y-77194316D01*
X140530264Y-77108625D01*
X140790606Y-76969469D01*
X141018797Y-76782197D01*
X141206069Y-76554006D01*
X141224000Y-76520459D01*
X141241931Y-76554006D01*
X141429203Y-76782197D01*
X141657395Y-76969469D01*
X141917737Y-77108625D01*
X142200224Y-77194316D01*
X142296066Y-77203756D01*
X140169834Y-79329988D01*
X132381477Y-79329988D01*
X132338011Y-79325707D01*
X132294545Y-79329988D01*
X132294535Y-79329988D01*
X132164522Y-79342793D01*
X131997699Y-79393399D01*
X131843953Y-79475577D01*
X131843951Y-79475578D01*
X131843952Y-79475578D01*
X131742965Y-79558456D01*
X131742963Y-79558458D01*
X131709195Y-79586171D01*
X131681482Y-79619939D01*
X130534525Y-80766897D01*
X130349033Y-80730000D01*
X130026967Y-80730000D01*
X129711088Y-80792832D01*
X129413537Y-80916082D01*
X129145748Y-81095013D01*
X128918013Y-81322748D01*
X128739082Y-81590537D01*
X128615832Y-81888088D01*
X128553000Y-82203967D01*
X128553000Y-82526033D01*
X128615832Y-82841912D01*
X128739082Y-83139463D01*
X128918013Y-83407252D01*
X129145748Y-83634987D01*
X129413537Y-83813918D01*
X129711088Y-83937168D01*
X130026967Y-84000000D01*
X130349033Y-84000000D01*
X130664912Y-83937168D01*
X130962463Y-83813918D01*
X131230252Y-83634987D01*
X131457987Y-83407252D01*
X131458000Y-83407233D01*
X131458013Y-83407252D01*
X131685748Y-83634987D01*
X131953537Y-83813918D01*
X132251088Y-83937168D01*
X132566967Y-84000000D01*
X132889033Y-84000000D01*
X133204912Y-83937168D01*
X133502463Y-83813918D01*
X133770252Y-83634987D01*
X133904826Y-83500413D01*
X134312192Y-83500413D01*
X134407956Y-83764814D01*
X134697571Y-83905704D01*
X135009108Y-83987384D01*
X135330595Y-84006718D01*
X135649675Y-83962961D01*
X135954088Y-83857795D01*
X136128044Y-83764814D01*
X136223808Y-83500413D01*
X135268000Y-82544605D01*
X134312192Y-83500413D01*
X133904826Y-83500413D01*
X133997987Y-83407252D01*
X134070720Y-83298400D01*
X134132587Y-83320808D01*
X135088395Y-82365000D01*
X135074253Y-82350858D01*
X135253858Y-82171253D01*
X135268000Y-82185395D01*
X135282143Y-82171253D01*
X135461748Y-82350858D01*
X135447605Y-82365000D01*
X136403413Y-83320808D01*
X136465280Y-83298400D01*
X136538013Y-83407252D01*
X136765748Y-83634987D01*
X136923000Y-83740060D01*
X136923001Y-86210001D01*
X116041464Y-86210001D01*
X115997998Y-86205720D01*
X115954532Y-86210001D01*
X115954522Y-86210001D01*
X115824509Y-86222806D01*
X115657686Y-86273412D01*
X115503940Y-86355590D01*
X115503938Y-86355591D01*
X115503939Y-86355591D01*
X115402952Y-86438469D01*
X115402950Y-86438471D01*
X115369182Y-86466184D01*
X115344054Y-86496803D01*
X115159033Y-86460000D01*
X114836967Y-86460000D01*
X114521088Y-86522832D01*
X114223537Y-86646082D01*
X113955748Y-86825013D01*
X113728013Y-87052748D01*
X113549082Y-87320537D01*
X113425832Y-87618088D01*
X113363000Y-87933967D01*
X113363000Y-88256033D01*
X113399897Y-88441525D01*
X112952955Y-88888467D01*
X112919182Y-88916184D01*
X112808588Y-89050943D01*
X112726410Y-89204689D01*
X112675804Y-89371512D01*
X112662999Y-89501525D01*
X112662999Y-89501532D01*
X112658718Y-89545001D01*
X111708000Y-89545001D01*
X111708000Y-73735000D01*
X124296293Y-73735000D01*
X124166406Y-73864887D01*
X124166406Y-73864887D01*
G37*
X124166406Y-73864887D02*
X123874536Y-74301702D01*
X123673492Y-74787065D01*
X123571000Y-75302323D01*
X123571000Y-75827677D01*
X123673492Y-76342935D01*
X123874536Y-76828298D01*
X124166406Y-77265113D01*
X124537887Y-77636594D01*
X124974702Y-77928464D01*
X125460065Y-78129508D01*
X125975323Y-78232000D01*
X126500677Y-78232000D01*
X127015935Y-78129508D01*
X127501298Y-77928464D01*
X127938113Y-77636594D01*
X128309594Y-77265113D01*
X128601464Y-76828298D01*
X128657001Y-76694219D01*
X128729203Y-76782197D01*
X128957395Y-76969469D01*
X129217737Y-77108625D01*
X129500224Y-77194316D01*
X129794000Y-77223251D01*
X130087777Y-77194316D01*
X130370264Y-77108625D01*
X130630606Y-76969469D01*
X130858797Y-76782197D01*
X131046069Y-76554006D01*
X131064000Y-76520459D01*
X131081931Y-76554006D01*
X131269203Y-76782197D01*
X131497395Y-76969469D01*
X131757737Y-77108625D01*
X132040224Y-77194316D01*
X132334000Y-77223251D01*
X132627777Y-77194316D01*
X132910264Y-77108625D01*
X133170606Y-76969469D01*
X133398797Y-76782197D01*
X133586069Y-76554006D01*
X133604000Y-76520459D01*
X133621931Y-76554006D01*
X133809203Y-76782197D01*
X134037395Y-76969469D01*
X134297737Y-77108625D01*
X134580224Y-77194316D01*
X134874000Y-77223251D01*
X135167777Y-77194316D01*
X135450264Y-77108625D01*
X135710606Y-76969469D01*
X135938797Y-76782197D01*
X136126069Y-76554006D01*
X136147424Y-76514053D01*
X136295514Y-76716729D01*
X136511965Y-76915733D01*
X136763081Y-77068686D01*
X137039211Y-77169709D01*
X137054974Y-77172358D01*
X137287000Y-77051217D01*
X137287000Y-75692000D01*
X137267000Y-75692000D01*
X137267000Y-75438000D01*
X137287000Y-75438000D01*
X137287000Y-74078783D01*
X137054974Y-73957642D01*
X137039211Y-73960291D01*
X136763081Y-74061314D01*
X136511965Y-74214267D01*
X136295514Y-74413271D01*
X136147424Y-74615947D01*
X136126069Y-74575994D01*
X135938797Y-74347803D01*
X135710605Y-74160531D01*
X135450263Y-74021375D01*
X135167776Y-73935684D01*
X134874000Y-73906749D01*
X134580223Y-73935684D01*
X134297736Y-74021375D01*
X134037394Y-74160531D01*
X133809203Y-74347803D01*
X133621931Y-74575995D01*
X133604000Y-74609541D01*
X133586069Y-74575994D01*
X133398797Y-74347803D01*
X133170605Y-74160531D01*
X132910263Y-74021375D01*
X132627776Y-73935684D01*
X132334000Y-73906749D01*
X132040223Y-73935684D01*
X131757736Y-74021375D01*
X131497394Y-74160531D01*
X131269203Y-74347803D01*
X131081931Y-74575995D01*
X131064000Y-74609541D01*
X131046069Y-74575994D01*
X130858797Y-74347803D01*
X130630605Y-74160531D01*
X130370263Y-74021375D01*
X130087776Y-73935684D01*
X129794000Y-73906749D01*
X129500223Y-73935684D01*
X129217736Y-74021375D01*
X128957394Y-74160531D01*
X128729203Y-74347803D01*
X128657001Y-74435781D01*
X128601464Y-74301702D01*
X128309594Y-73864887D01*
X128179707Y-73735000D01*
X175219909Y-73735000D01*
X176328001Y-74843093D01*
X176328000Y-85944125D01*
X176324565Y-85979000D01*
X176328000Y-86013875D01*
X176328000Y-86013876D01*
X176338273Y-86118183D01*
X176378872Y-86252019D01*
X176444800Y-86375362D01*
X176533525Y-86483474D01*
X176560617Y-86505708D01*
X178868001Y-88813093D01*
X178868001Y-88863294D01*
X178738113Y-88733406D01*
X178301298Y-88441536D01*
X177815935Y-88240492D01*
X177300677Y-88138000D01*
X176775323Y-88138000D01*
X176260065Y-88240492D01*
X175774702Y-88441536D01*
X175337887Y-88733406D01*
X174966406Y-89104887D01*
X174674536Y-89541702D01*
X174473492Y-90027065D01*
X174371000Y-90542323D01*
X174371000Y-91067677D01*
X174473492Y-91582935D01*
X174674536Y-92068298D01*
X174966406Y-92505113D01*
X175337887Y-92876594D01*
X175774702Y-93168464D01*
X176260065Y-93369508D01*
X176775323Y-93472000D01*
X177300677Y-93472000D01*
X177815935Y-93369508D01*
X178301298Y-93168464D01*
X178738113Y-92876594D01*
X178868001Y-92746706D01*
X178868000Y-116803293D01*
X178738113Y-116673406D01*
X178301298Y-116381536D01*
X177815935Y-116180492D01*
X177300677Y-116078000D01*
X176775323Y-116078000D01*
X176260065Y-116180492D01*
X175774702Y-116381536D01*
X175337887Y-116673406D01*
X174966406Y-117044887D01*
X174674536Y-117481702D01*
X174473492Y-117967065D01*
X174371000Y-118482323D01*
X174371000Y-119007677D01*
X174473492Y-119522935D01*
X174674536Y-120008298D01*
X174966406Y-120445113D01*
X175337887Y-120816594D01*
X175774702Y-121108464D01*
X176260065Y-121309508D01*
X176775323Y-121412000D01*
X177300677Y-121412000D01*
X177815935Y-121309508D01*
X178301298Y-121108464D01*
X178738113Y-120816594D01*
X178868000Y-120686707D01*
X178868000Y-120990908D01*
X176560617Y-123298292D01*
X176533526Y-123320525D01*
X176511293Y-123347616D01*
X176444801Y-123428637D01*
X176378872Y-123551981D01*
X176338274Y-123685816D01*
X176324565Y-123825000D01*
X176328001Y-123859885D01*
X176328000Y-125655000D01*
X126909707Y-125655000D01*
X127039594Y-125525113D01*
X127331464Y-125088298D01*
X127532508Y-124602935D01*
X127635000Y-124087677D01*
X127635000Y-123562323D01*
X127532508Y-123047065D01*
X127331464Y-122561702D01*
X127039594Y-122124887D01*
X126668113Y-121753406D01*
X126231298Y-121461536D01*
X125745935Y-121260492D01*
X125230677Y-121158000D01*
X124705323Y-121158000D01*
X124190065Y-121260492D01*
X123704702Y-121461536D01*
X123267887Y-121753406D01*
X122896406Y-122124887D01*
X122604536Y-122561702D01*
X122403492Y-123047065D01*
X122301000Y-123562323D01*
X122301000Y-124087677D01*
X122403492Y-124602935D01*
X122604536Y-125088298D01*
X122896406Y-125525113D01*
X123026293Y-125655000D01*
X111708000Y-125655000D01*
X111708000Y-89545001D01*
X112658718Y-89545001D01*
X112662999Y-89588470D01*
X112663000Y-111221522D01*
X112658718Y-111265001D01*
X112675804Y-111438491D01*
X112726411Y-111605314D01*
X112808589Y-111759060D01*
X112891467Y-111860047D01*
X112891470Y-111860050D01*
X112919183Y-111893818D01*
X112952950Y-111921531D01*
X117241469Y-116210050D01*
X117269182Y-116243818D01*
X117302950Y-116271531D01*
X117302952Y-116271533D01*
X117363865Y-116321523D01*
X117403940Y-116354412D01*
X117557686Y-116436590D01*
X117673902Y-116471844D01*
X117724508Y-116487196D01*
X117739305Y-116488653D01*
X117854522Y-116500001D01*
X117854530Y-116500001D01*
X117897999Y-116504282D01*
X117941468Y-116500001D01*
X134704530Y-116500001D01*
X134747999Y-116504282D01*
X134791468Y-116500001D01*
X134791476Y-116500001D01*
X134921489Y-116487196D01*
X135088312Y-116436590D01*
X135242058Y-116354412D01*
X135376816Y-116243818D01*
X135404533Y-116210045D01*
X135821561Y-115793017D01*
X135856665Y-115800000D01*
X136139335Y-115800000D01*
X136169424Y-115794015D01*
X136202950Y-115821529D01*
X136202952Y-115821531D01*
X136263158Y-115870941D01*
X136303940Y-115904410D01*
X136457686Y-115986588D01*
X136624509Y-116037194D01*
X136754522Y-116049999D01*
X136754532Y-116049999D01*
X136797998Y-116054280D01*
X136841464Y-116049999D01*
X140223821Y-116049999D01*
X146360065Y-122186244D01*
X146264223Y-122195684D01*
X145981736Y-122281375D01*
X145721394Y-122420531D01*
X145493203Y-122607803D01*
X145305931Y-122835995D01*
X145288000Y-122869541D01*
X145270069Y-122835994D01*
X145082797Y-122607803D01*
X144854605Y-122420531D01*
X144594263Y-122281375D01*
X144311776Y-122195684D01*
X144018000Y-122166749D01*
X143724223Y-122195684D01*
X143441736Y-122281375D01*
X143181394Y-122420531D01*
X142953203Y-122607803D01*
X142765931Y-122835995D01*
X142748000Y-122869541D01*
X142730069Y-122835994D01*
X142542797Y-122607803D01*
X142314605Y-122420531D01*
X142054263Y-122281375D01*
X141771776Y-122195684D01*
X141478000Y-122166749D01*
X141184223Y-122195684D01*
X140901736Y-122281375D01*
X140641394Y-122420531D01*
X140413203Y-122607803D01*
X140225931Y-122835995D01*
X140208000Y-122869541D01*
X140190069Y-122835994D01*
X140002797Y-122607803D01*
X139774605Y-122420531D01*
X139514263Y-122281375D01*
X139231776Y-122195684D01*
X138938000Y-122166749D01*
X138644223Y-122195684D01*
X138361736Y-122281375D01*
X138101394Y-122420531D01*
X137873203Y-122607803D01*
X137685931Y-122835995D01*
X137546775Y-123096337D01*
X137461084Y-123378824D01*
X137439400Y-123598982D01*
X137439400Y-124051019D01*
X137461084Y-124271177D01*
X137546775Y-124553664D01*
X137685931Y-124814006D01*
X137873203Y-125042197D01*
X138101395Y-125229469D01*
X138361737Y-125368625D01*
X138644224Y-125454316D01*
X138938000Y-125483251D01*
X139231777Y-125454316D01*
X139514264Y-125368625D01*
X139774606Y-125229469D01*
X140002797Y-125042197D01*
X140190069Y-124814006D01*
X140208000Y-124780459D01*
X140225931Y-124814006D01*
X140413203Y-125042197D01*
X140641395Y-125229469D01*
X140901737Y-125368625D01*
X141184224Y-125454316D01*
X141478000Y-125483251D01*
X141771777Y-125454316D01*
X142054264Y-125368625D01*
X142314606Y-125229469D01*
X142542797Y-125042197D01*
X142730069Y-124814006D01*
X142748000Y-124780459D01*
X142765931Y-124814006D01*
X142953203Y-125042197D01*
X143181395Y-125229469D01*
X143441737Y-125368625D01*
X143724224Y-125454316D01*
X144018000Y-125483251D01*
X144311777Y-125454316D01*
X144594264Y-125368625D01*
X144854606Y-125229469D01*
X145082797Y-125042197D01*
X145270069Y-124814006D01*
X145288000Y-124780459D01*
X145305931Y-124814006D01*
X145493203Y-125042197D01*
X145721395Y-125229469D01*
X145981737Y-125368625D01*
X146264224Y-125454316D01*
X146558000Y-125483251D01*
X146851777Y-125454316D01*
X147134264Y-125368625D01*
X147394606Y-125229469D01*
X147622797Y-125042197D01*
X147810069Y-124814006D01*
X147828000Y-124780459D01*
X147845931Y-124814006D01*
X148033203Y-125042197D01*
X148261395Y-125229469D01*
X148521737Y-125368625D01*
X148804224Y-125454316D01*
X149098000Y-125483251D01*
X149391777Y-125454316D01*
X149674264Y-125368625D01*
X149934606Y-125229469D01*
X150162797Y-125042197D01*
X150350069Y-124814006D01*
X150371424Y-124774053D01*
X150519514Y-124976729D01*
X150735965Y-125175733D01*
X150987081Y-125328686D01*
X151263211Y-125429709D01*
X151278974Y-125432358D01*
X151511000Y-125311217D01*
X151511000Y-123952000D01*
X151765000Y-123952000D01*
X151765000Y-125311217D01*
X151997026Y-125432358D01*
X152012789Y-125429709D01*
X152288919Y-125328686D01*
X152540035Y-125175733D01*
X152756486Y-124976729D01*
X152908000Y-124769367D01*
X153059514Y-124976729D01*
X153275965Y-125175733D01*
X153527081Y-125328686D01*
X153803211Y-125429709D01*
X153818974Y-125432358D01*
X154051000Y-125311217D01*
X154051000Y-123952000D01*
X151765000Y-123952000D01*
X151511000Y-123952000D01*
X151491000Y-123952000D01*
X151491000Y-123698000D01*
X151511000Y-123698000D01*
X151511000Y-122338783D01*
X151765000Y-122338783D01*
X151765000Y-123698000D01*
X154051000Y-123698000D01*
X154051000Y-122338783D01*
X154305000Y-122338783D01*
X154305000Y-123698000D01*
X154325000Y-123698000D01*
X154325000Y-123952000D01*
X154305000Y-123952000D01*
X154305000Y-125311217D01*
X154537026Y-125432358D01*
X154552789Y-125429709D01*
X154828919Y-125328686D01*
X155080035Y-125175733D01*
X155296486Y-124976729D01*
X155444576Y-124774053D01*
X155465931Y-124814006D01*
X155653203Y-125042197D01*
X155881395Y-125229469D01*
X156141737Y-125368625D01*
X156424224Y-125454316D01*
X156718000Y-125483251D01*
X157011777Y-125454316D01*
X157294264Y-125368625D01*
X157554606Y-125229469D01*
X157782797Y-125042197D01*
X157970069Y-124814006D01*
X158109225Y-124553663D01*
X158194916Y-124271176D01*
X158216600Y-124051018D01*
X158216600Y-123598981D01*
X158194916Y-123378823D01*
X158109225Y-123096336D01*
X157970069Y-122835994D01*
X157782797Y-122607803D01*
X157554605Y-122420531D01*
X157294263Y-122281375D01*
X157011776Y-122195684D01*
X156718000Y-122166749D01*
X156424223Y-122195684D01*
X156141736Y-122281375D01*
X155881394Y-122420531D01*
X155653203Y-122607803D01*
X155465931Y-122835995D01*
X155444576Y-122875947D01*
X155296486Y-122673271D01*
X155080035Y-122474267D01*
X154828919Y-122321314D01*
X154552789Y-122220291D01*
X154537026Y-122217642D01*
X154305000Y-122338783D01*
X154051000Y-122338783D01*
X153818974Y-122217642D01*
X153803211Y-122220291D01*
X153527081Y-122321314D01*
X153275965Y-122474267D01*
X153059514Y-122673271D01*
X152908000Y-122880633D01*
X152756486Y-122673271D01*
X152540035Y-122474267D01*
X152288919Y-122321314D01*
X152012789Y-122220291D01*
X151997026Y-122217642D01*
X151765000Y-122338783D01*
X151511000Y-122338783D01*
X151278974Y-122217642D01*
X151263211Y-122220291D01*
X150987081Y-122321314D01*
X150735965Y-122474267D01*
X150519514Y-122673271D01*
X150371424Y-122875947D01*
X150350069Y-122835994D01*
X150162797Y-122607803D01*
X149934605Y-122420531D01*
X149674263Y-122281375D01*
X149391776Y-122195684D01*
X149098000Y-122166749D01*
X148866526Y-122189548D01*
X141246931Y-114569953D01*
X141219216Y-114536182D01*
X141084458Y-114425588D01*
X140930712Y-114343410D01*
X140763889Y-114292804D01*
X140633876Y-114279999D01*
X140633868Y-114279999D01*
X140590399Y-114275718D01*
X140546930Y-114279999D01*
X137433000Y-114279999D01*
X137433000Y-114223665D01*
X137377853Y-113946426D01*
X137269680Y-113685273D01*
X137112637Y-113450241D01*
X136912759Y-113250363D01*
X136677727Y-113093320D01*
X136416574Y-112985147D01*
X136139335Y-112930000D01*
X136083001Y-112930000D01*
X136083001Y-110665117D01*
X136281088Y-110747168D01*
X136596967Y-110810000D01*
X136919033Y-110810000D01*
X137234912Y-110747168D01*
X137532463Y-110623918D01*
X137800252Y-110444987D01*
X138027987Y-110217252D01*
X138206918Y-109949463D01*
X138330168Y-109651912D01*
X138393000Y-109336033D01*
X138393000Y-109013967D01*
X138330168Y-108698088D01*
X138206918Y-108400537D01*
X138027987Y-108132748D01*
X137800252Y-107905013D01*
X137800233Y-107905000D01*
X137800252Y-107904987D01*
X138027987Y-107677252D01*
X138133059Y-107520000D01*
X142901422Y-107520000D01*
X143663000Y-108281579D01*
X143663000Y-108496486D01*
X143714304Y-108754405D01*
X143814939Y-108997359D01*
X143961038Y-109216013D01*
X144146987Y-109401962D01*
X144365641Y-109548061D01*
X144608595Y-109648696D01*
X144866514Y-109700000D01*
X145129486Y-109700000D01*
X145387405Y-109648696D01*
X145630359Y-109548061D01*
X145849013Y-109401962D01*
X146000975Y-109250000D01*
X151863479Y-109250000D01*
X151883363Y-109279759D01*
X152083241Y-109479637D01*
X152318273Y-109636680D01*
X152579426Y-109744853D01*
X152856665Y-109800000D01*
X153139335Y-109800000D01*
X153416574Y-109744853D01*
X153677727Y-109636680D01*
X153912759Y-109479637D01*
X154112637Y-109279759D01*
X154132521Y-109250000D01*
X156917287Y-109250000D01*
X156969445Y-109313555D01*
X157172725Y-109480382D01*
X157404646Y-109604347D01*
X157656294Y-109680683D01*
X157852421Y-109700000D01*
X157983579Y-109700000D01*
X158179706Y-109680683D01*
X158431354Y-109604347D01*
X158663275Y-109480382D01*
X158866555Y-109313555D01*
X159033382Y-109110275D01*
X159157347Y-108878354D01*
X159233683Y-108626706D01*
X159259459Y-108365000D01*
X159233683Y-108103294D01*
X159157347Y-107851646D01*
X159033382Y-107619725D01*
X158866555Y-107416445D01*
X158663275Y-107249618D01*
X158431354Y-107125653D01*
X158179706Y-107049317D01*
X157983579Y-107030000D01*
X157852421Y-107030000D01*
X157656294Y-107049317D01*
X157404646Y-107125653D01*
X157172725Y-107249618D01*
X156969445Y-107416445D01*
X156917287Y-107480000D01*
X154132521Y-107480000D01*
X154112637Y-107450241D01*
X153912759Y-107250363D01*
X153677727Y-107093320D01*
X153416574Y-106985147D01*
X153139335Y-106930000D01*
X152856665Y-106930000D01*
X152579426Y-106985147D01*
X152318273Y-107093320D01*
X152083241Y-107250363D01*
X151883363Y-107450241D01*
X151863479Y-107480000D01*
X146000975Y-107480000D01*
X145849013Y-107328038D01*
X145630359Y-107181939D01*
X145387405Y-107081304D01*
X145129486Y-107030000D01*
X144914579Y-107030000D01*
X143924534Y-106039956D01*
X143896817Y-106006183D01*
X143762059Y-105895589D01*
X143608313Y-105813411D01*
X143441490Y-105762805D01*
X143311477Y-105750000D01*
X143311469Y-105750000D01*
X143268000Y-105745719D01*
X143224531Y-105750000D01*
X138133059Y-105750000D01*
X138027987Y-105592748D01*
X137800252Y-105365013D01*
X137800233Y-105365000D01*
X137800252Y-105364987D01*
X138027987Y-105137252D01*
X138206918Y-104869463D01*
X138330168Y-104571912D01*
X138393000Y-104256033D01*
X138393000Y-103933967D01*
X138330168Y-103618088D01*
X138206918Y-103320537D01*
X138027987Y-103052748D01*
X137800252Y-102825013D01*
X137800233Y-102825000D01*
X137800252Y-102824987D01*
X138027987Y-102597252D01*
X138206918Y-102329463D01*
X138330168Y-102031912D01*
X138393000Y-101716033D01*
X138393000Y-101393967D01*
X138330168Y-101078088D01*
X138293680Y-100989999D01*
X141451421Y-100989999D01*
X143664600Y-103203179D01*
X143656541Y-103285000D01*
X143682317Y-103546706D01*
X143758653Y-103798354D01*
X143882618Y-104030275D01*
X144049445Y-104233555D01*
X144252725Y-104400382D01*
X144484646Y-104524347D01*
X144736294Y-104600683D01*
X144932421Y-104620000D01*
X145063579Y-104620000D01*
X145259706Y-104600683D01*
X145511354Y-104524347D01*
X145743275Y-104400382D01*
X145946555Y-104233555D01*
X145998713Y-104170000D01*
X151810025Y-104170000D01*
X151883363Y-104279759D01*
X152083241Y-104479637D01*
X152318273Y-104636680D01*
X152579426Y-104744853D01*
X152856665Y-104800000D01*
X153139335Y-104800000D01*
X153416574Y-104744853D01*
X153677727Y-104636680D01*
X153912759Y-104479637D01*
X154112637Y-104279759D01*
X154132521Y-104250000D01*
X156917287Y-104250000D01*
X156969445Y-104313555D01*
X157172725Y-104480382D01*
X157404646Y-104604347D01*
X157656294Y-104680683D01*
X157852421Y-104700000D01*
X157983579Y-104700000D01*
X158179706Y-104680683D01*
X158431354Y-104604347D01*
X158663275Y-104480382D01*
X158866555Y-104313555D01*
X158888947Y-104286269D01*
X162256336Y-104286269D01*
X162315797Y-104520037D01*
X162554242Y-104630934D01*
X162809740Y-104693183D01*
X163072473Y-104704390D01*
X163332344Y-104664125D01*
X163579366Y-104573935D01*
X163680203Y-104520037D01*
X163739664Y-104286269D01*
X162998000Y-103544605D01*
X162256336Y-104286269D01*
X158888947Y-104286269D01*
X159033382Y-104110275D01*
X159157347Y-103878354D01*
X159233683Y-103626706D01*
X159252123Y-103439473D01*
X161658610Y-103439473D01*
X161698875Y-103699344D01*
X161789065Y-103946366D01*
X161842963Y-104047203D01*
X162076731Y-104106664D01*
X162818395Y-103365000D01*
X163177605Y-103365000D01*
X163919269Y-104106664D01*
X164153037Y-104047203D01*
X164263934Y-103808758D01*
X164326183Y-103553260D01*
X164337390Y-103290527D01*
X164297125Y-103030656D01*
X164206935Y-102783634D01*
X164153037Y-102682797D01*
X163919269Y-102623336D01*
X163177605Y-103365000D01*
X162818395Y-103365000D01*
X162076731Y-102623336D01*
X161842963Y-102682797D01*
X161732066Y-102921242D01*
X161669817Y-103176740D01*
X161658610Y-103439473D01*
X159252123Y-103439473D01*
X159259459Y-103365000D01*
X159233683Y-103103294D01*
X159157347Y-102851646D01*
X159033382Y-102619725D01*
X158888948Y-102443731D01*
X162256336Y-102443731D01*
X162998000Y-103185395D01*
X163739664Y-102443731D01*
X163681241Y-102214040D01*
X166606091Y-102214040D01*
X166700930Y-102478881D01*
X166845615Y-102720131D01*
X167034586Y-102928519D01*
X167260580Y-103096037D01*
X167514913Y-103216246D01*
X167648961Y-103256904D01*
X167871000Y-103134915D01*
X167871000Y-101992000D01*
X166727376Y-101992000D01*
X166606091Y-102214040D01*
X163681241Y-102214040D01*
X163680203Y-102209963D01*
X163441758Y-102099066D01*
X163186260Y-102036817D01*
X162923527Y-102025610D01*
X162663656Y-102065875D01*
X162416634Y-102156065D01*
X162315797Y-102209963D01*
X162256336Y-102443731D01*
X158888948Y-102443731D01*
X158866555Y-102416445D01*
X158663275Y-102249618D01*
X158431354Y-102125653D01*
X158179706Y-102049317D01*
X157983579Y-102030000D01*
X157852421Y-102030000D01*
X157656294Y-102049317D01*
X157404646Y-102125653D01*
X157172725Y-102249618D01*
X156969445Y-102416445D01*
X156917287Y-102480000D01*
X154132521Y-102480000D01*
X154112637Y-102450241D01*
X153912759Y-102250363D01*
X153677727Y-102093320D01*
X153416574Y-101985147D01*
X153139335Y-101930000D01*
X152856665Y-101930000D01*
X152579426Y-101985147D01*
X152318273Y-102093320D01*
X152083241Y-102250363D01*
X151933604Y-102400000D01*
X145998713Y-102400000D01*
X145946555Y-102336445D01*
X145743275Y-102169618D01*
X145511354Y-102045653D01*
X145259706Y-101969317D01*
X145063579Y-101950000D01*
X144932421Y-101950000D01*
X144916179Y-101951600D01*
X142474533Y-99509955D01*
X142446816Y-99476182D01*
X142312058Y-99365588D01*
X142158312Y-99283410D01*
X141991489Y-99232804D01*
X141861476Y-99219999D01*
X141861468Y-99219999D01*
X141817999Y-99215718D01*
X141774530Y-99219999D01*
X134685683Y-99219999D01*
X134642214Y-99215718D01*
X134598745Y-99219999D01*
X134598737Y-99219999D01*
X134468724Y-99232804D01*
X134301900Y-99283410D01*
X134148155Y-99365588D01*
X134047167Y-99448467D01*
X134047165Y-99448469D01*
X134013397Y-99476182D01*
X133985684Y-99509950D01*
X130869019Y-102626616D01*
X130876072Y-102555000D01*
X130876072Y-100555000D01*
X130863812Y-100430518D01*
X130827502Y-100310820D01*
X130768537Y-100200506D01*
X130689185Y-100103815D01*
X130592494Y-100024463D01*
X130482180Y-99965498D01*
X130362482Y-99929188D01*
X130238000Y-99916928D01*
X128238000Y-99916928D01*
X128113518Y-99929188D01*
X127993820Y-99965498D01*
X127883506Y-100024463D01*
X127786815Y-100103815D01*
X127707463Y-100200506D01*
X127648498Y-100310820D01*
X127612188Y-100430518D01*
X127599928Y-100555000D01*
X127599928Y-102555000D01*
X127612188Y-102679482D01*
X127648498Y-102799180D01*
X127707463Y-102909494D01*
X127786815Y-103006185D01*
X127883506Y-103085537D01*
X127929630Y-103110191D01*
X127789082Y-103320537D01*
X127665832Y-103618088D01*
X127633784Y-103779206D01*
X127624534Y-103769956D01*
X127596817Y-103736183D01*
X127462059Y-103625589D01*
X127308313Y-103543411D01*
X127141490Y-103492805D01*
X127011477Y-103480000D01*
X127011469Y-103480000D01*
X126968000Y-103475719D01*
X126924531Y-103480000D01*
X122000975Y-103480000D01*
X121849013Y-103328038D01*
X121630359Y-103181939D01*
X121387405Y-103081304D01*
X121129486Y-103030000D01*
X120914578Y-103030000D01*
X120654532Y-102769954D01*
X120626817Y-102736183D01*
X120492059Y-102625589D01*
X120338313Y-102543411D01*
X120171490Y-102492805D01*
X120041477Y-102480000D01*
X120041469Y-102480000D01*
X119998000Y-102475719D01*
X119954531Y-102480000D01*
X116132521Y-102480000D01*
X116112637Y-102450241D01*
X115912759Y-102250363D01*
X115883000Y-102230479D01*
X115883000Y-100447975D01*
X116034962Y-100296013D01*
X116181061Y-100077359D01*
X116281696Y-99834405D01*
X116333000Y-99576486D01*
X116333000Y-99313514D01*
X116281696Y-99055595D01*
X116181061Y-98812641D01*
X116034962Y-98593987D01*
X115849013Y-98408038D01*
X115630359Y-98261939D01*
X115387405Y-98161304D01*
X115129486Y-98110000D01*
X114866514Y-98110000D01*
X114608595Y-98161304D01*
X114432999Y-98234038D01*
X114432999Y-95576741D01*
X114484646Y-95604347D01*
X114736294Y-95680683D01*
X114932421Y-95700000D01*
X115063579Y-95700000D01*
X115259706Y-95680683D01*
X115511354Y-95604347D01*
X115743275Y-95480382D01*
X115946555Y-95313555D01*
X116113382Y-95110275D01*
X116237347Y-94878354D01*
X116313683Y-94626706D01*
X116339459Y-94365000D01*
X116313683Y-94103294D01*
X116237347Y-93851646D01*
X116113382Y-93619725D01*
X115946555Y-93416445D01*
X115883000Y-93364287D01*
X115883000Y-92010059D01*
X116040252Y-91904987D01*
X116267987Y-91677252D01*
X116336309Y-91575000D01*
X139034429Y-91575000D01*
X139034429Y-95395000D01*
X152961572Y-95395000D01*
X152961572Y-91575000D01*
X139034429Y-91575000D01*
X116336309Y-91575000D01*
X116446918Y-91409463D01*
X116570168Y-91111912D01*
X116633000Y-90796033D01*
X116633000Y-90473967D01*
X116570168Y-90158088D01*
X116446918Y-89860537D01*
X116267987Y-89592748D01*
X116040252Y-89365013D01*
X116040233Y-89365000D01*
X116040252Y-89364987D01*
X116267987Y-89137252D01*
X116446918Y-88869463D01*
X116570168Y-88571912D01*
X116633000Y-88256033D01*
X116633000Y-87980001D01*
X137684532Y-87980001D01*
X137728001Y-87984282D01*
X137771470Y-87980001D01*
X149034523Y-87980001D01*
X149077999Y-87984283D01*
X149121476Y-87980001D01*
X154711425Y-87980001D01*
X167331749Y-100600325D01*
X167260580Y-100633963D01*
X167034586Y-100801481D01*
X166845615Y-101009869D01*
X166700930Y-101251119D01*
X166606091Y-101515960D01*
X166727376Y-101738000D01*
X167871000Y-101738000D01*
X167871000Y-101718000D01*
X168125000Y-101718000D01*
X168125000Y-101738000D01*
X168145000Y-101738000D01*
X168145000Y-101992000D01*
X168125000Y-101992000D01*
X168125000Y-103134915D01*
X168347039Y-103256904D01*
X168481087Y-103216246D01*
X168735420Y-103096037D01*
X168961414Y-102928519D01*
X169150385Y-102720131D01*
X169263292Y-102531869D01*
X174373001Y-107641578D01*
X174373002Y-111822873D01*
X174066892Y-111742616D01*
X173745405Y-111723282D01*
X173426325Y-111767039D01*
X173121912Y-111872205D01*
X172947956Y-111965186D01*
X172852192Y-112229587D01*
X173808000Y-113185395D01*
X173822143Y-113171253D01*
X174001748Y-113350858D01*
X173987605Y-113365000D01*
X174001748Y-113379143D01*
X173822143Y-113558748D01*
X173808000Y-113544605D01*
X173793858Y-113558748D01*
X173614253Y-113379143D01*
X173628395Y-113365000D01*
X172672587Y-112409192D01*
X172610720Y-112431600D01*
X172537987Y-112322748D01*
X172310252Y-112095013D01*
X172153000Y-111989941D01*
X172153000Y-111907310D01*
X172140195Y-111777297D01*
X172089589Y-111610474D01*
X172007411Y-111456728D01*
X171896817Y-111321970D01*
X171762058Y-111211376D01*
X171608312Y-111129198D01*
X171441489Y-111078592D01*
X171268000Y-111061505D01*
X171094510Y-111078592D01*
X170927687Y-111129198D01*
X170773941Y-111211376D01*
X170639183Y-111321970D01*
X170528589Y-111456729D01*
X170446411Y-111610475D01*
X170395805Y-111777298D01*
X170383000Y-111907311D01*
X170383000Y-111989940D01*
X170225748Y-112095013D01*
X169998013Y-112322748D01*
X169998000Y-112322767D01*
X169997987Y-112322748D01*
X169770252Y-112095013D01*
X169502463Y-111916082D01*
X169204912Y-111792832D01*
X168889033Y-111730000D01*
X168566967Y-111730000D01*
X168251088Y-111792832D01*
X167953537Y-111916082D01*
X167685748Y-112095013D01*
X167458013Y-112322748D01*
X167458000Y-112322767D01*
X167457987Y-112322748D01*
X167230252Y-112095013D01*
X166962463Y-111916082D01*
X166664912Y-111792832D01*
X166349033Y-111730000D01*
X166026967Y-111730000D01*
X165711088Y-111792832D01*
X165413537Y-111916082D01*
X165145748Y-112095013D01*
X164918013Y-112322748D01*
X164739082Y-112590537D01*
X164615832Y-112888088D01*
X164553000Y-113203967D01*
X164553000Y-113526033D01*
X164588355Y-113703777D01*
X163883000Y-112998422D01*
X163883000Y-110242956D01*
X163954523Y-110250000D01*
X163954533Y-110250000D01*
X163997999Y-110254281D01*
X164041465Y-110250000D01*
X166863479Y-110250000D01*
X166883363Y-110279759D01*
X167083241Y-110479637D01*
X167318273Y-110636680D01*
X167579426Y-110744853D01*
X167856665Y-110800000D01*
X168139335Y-110800000D01*
X168416574Y-110744853D01*
X168677727Y-110636680D01*
X168912759Y-110479637D01*
X169112637Y-110279759D01*
X169269680Y-110044727D01*
X169377853Y-109783574D01*
X169433000Y-109506335D01*
X169433000Y-109223665D01*
X169377853Y-108946426D01*
X169269680Y-108685273D01*
X169112637Y-108450241D01*
X168912759Y-108250363D01*
X168677727Y-108093320D01*
X168416574Y-107985147D01*
X168139335Y-107930000D01*
X167856665Y-107930000D01*
X167579426Y-107985147D01*
X167318273Y-108093320D01*
X167083241Y-108250363D01*
X166883363Y-108450241D01*
X166863479Y-108480000D01*
X164364578Y-108480000D01*
X164354536Y-108469958D01*
X164354531Y-108469952D01*
X164333000Y-108448421D01*
X164333000Y-108233514D01*
X164281696Y-107975595D01*
X164181061Y-107732641D01*
X164034962Y-107513987D01*
X163849013Y-107328038D01*
X163630359Y-107181939D01*
X163387405Y-107081304D01*
X163129486Y-107030000D01*
X162866514Y-107030000D01*
X162608595Y-107081304D01*
X162365641Y-107181939D01*
X162146987Y-107328038D01*
X161961038Y-107513987D01*
X161814939Y-107732641D01*
X161714304Y-107975595D01*
X161663000Y-108233514D01*
X161663000Y-108496486D01*
X161714304Y-108754405D01*
X161814939Y-108997359D01*
X161961038Y-109216013D01*
X162113000Y-109367975D01*
X162113001Y-113321521D01*
X162108719Y-113365000D01*
X162125805Y-113538490D01*
X162176412Y-113705313D01*
X162258590Y-113859059D01*
X162341468Y-113960046D01*
X162341471Y-113960049D01*
X162369184Y-113993817D01*
X162402951Y-114021529D01*
X165113000Y-116731579D01*
X165113001Y-119106020D01*
X162029474Y-122189548D01*
X161798000Y-122166749D01*
X161504223Y-122195684D01*
X161221736Y-122281375D01*
X160961394Y-122420531D01*
X160733203Y-122607803D01*
X160545931Y-122835995D01*
X160406775Y-123096337D01*
X160321084Y-123378824D01*
X160299400Y-123598982D01*
X160299400Y-124051019D01*
X160321084Y-124271177D01*
X160406775Y-124553664D01*
X160545931Y-124814006D01*
X160733203Y-125042197D01*
X160961395Y-125229469D01*
X161221737Y-125368625D01*
X161504224Y-125454316D01*
X161798000Y-125483251D01*
X162091777Y-125454316D01*
X162374264Y-125368625D01*
X162634606Y-125229469D01*
X162862797Y-125042197D01*
X163050069Y-124814006D01*
X163068000Y-124780459D01*
X163085931Y-124814006D01*
X163273203Y-125042197D01*
X163501395Y-125229469D01*
X163761737Y-125368625D01*
X164044224Y-125454316D01*
X164338000Y-125483251D01*
X164631777Y-125454316D01*
X164914264Y-125368625D01*
X165174606Y-125229469D01*
X165402797Y-125042197D01*
X165590069Y-124814006D01*
X165608000Y-124780459D01*
X165625931Y-124814006D01*
X165813203Y-125042197D01*
X166041395Y-125229469D01*
X166301737Y-125368625D01*
X166584224Y-125454316D01*
X166878000Y-125483251D01*
X167171777Y-125454316D01*
X167454264Y-125368625D01*
X167714606Y-125229469D01*
X167942797Y-125042197D01*
X168130069Y-124814006D01*
X168148000Y-124780459D01*
X168165931Y-124814006D01*
X168353203Y-125042197D01*
X168581395Y-125229469D01*
X168841737Y-125368625D01*
X169124224Y-125454316D01*
X169418000Y-125483251D01*
X169711777Y-125454316D01*
X169994264Y-125368625D01*
X170254606Y-125229469D01*
X170482797Y-125042197D01*
X170670069Y-124814006D01*
X170688000Y-124780459D01*
X170705931Y-124814006D01*
X170893203Y-125042197D01*
X171121395Y-125229469D01*
X171381737Y-125368625D01*
X171664224Y-125454316D01*
X171958000Y-125483251D01*
X172251777Y-125454316D01*
X172534264Y-125368625D01*
X172794606Y-125229469D01*
X173022797Y-125042197D01*
X173210069Y-124814006D01*
X173228000Y-124780459D01*
X173245931Y-124814006D01*
X173433203Y-125042197D01*
X173661395Y-125229469D01*
X173921737Y-125368625D01*
X174204224Y-125454316D01*
X174498000Y-125483251D01*
X174791777Y-125454316D01*
X175074264Y-125368625D01*
X175334606Y-125229469D01*
X175562797Y-125042197D01*
X175750069Y-124814006D01*
X175889225Y-124553663D01*
X175974916Y-124271176D01*
X175996600Y-124051018D01*
X175996600Y-123598981D01*
X175974916Y-123378823D01*
X175889225Y-123096336D01*
X175750069Y-122835994D01*
X175562797Y-122607803D01*
X175334605Y-122420531D01*
X175074263Y-122281375D01*
X174791776Y-122195684D01*
X174498000Y-122166749D01*
X174266526Y-122189548D01*
X173790934Y-121713956D01*
X173763217Y-121680183D01*
X173628459Y-121569589D01*
X173474713Y-121487411D01*
X173384678Y-121460099D01*
X169613000Y-117688422D01*
X169613000Y-114740059D01*
X169770252Y-114634987D01*
X169997987Y-114407252D01*
X169998000Y-114407233D01*
X169998013Y-114407252D01*
X170225748Y-114634987D01*
X170493537Y-114813918D01*
X170791088Y-114937168D01*
X171106967Y-115000000D01*
X171429033Y-115000000D01*
X171614525Y-114963104D01*
X171672952Y-115021531D01*
X171672958Y-115021536D01*
X172061467Y-115410045D01*
X172089184Y-115443818D01*
X172223942Y-115554412D01*
X172377688Y-115636590D01*
X172493904Y-115671844D01*
X172544510Y-115687196D01*
X172559307Y-115688653D01*
X172674524Y-115700001D01*
X172674532Y-115700001D01*
X172718001Y-115704282D01*
X172761470Y-115700001D01*
X174460532Y-115700001D01*
X174504001Y-115704282D01*
X174547470Y-115700001D01*
X174547478Y-115700001D01*
X174677491Y-115687196D01*
X174844314Y-115636590D01*
X174998060Y-115554412D01*
X175132818Y-115443818D01*
X175160535Y-115410045D01*
X175853050Y-114717531D01*
X175886818Y-114689818D01*
X175997412Y-114555060D01*
X176079590Y-114401314D01*
X176130196Y-114234491D01*
X176143001Y-114104478D01*
X176143001Y-114104468D01*
X176147282Y-114061002D01*
X176143001Y-114017535D01*
X176143001Y-107318468D01*
X176147282Y-107274999D01*
X176143001Y-107231530D01*
X176143001Y-107231522D01*
X176130196Y-107101509D01*
X176079590Y-106934686D01*
X175997412Y-106780940D01*
X175886818Y-106646182D01*
X175853052Y-106618471D01*
X155734535Y-86499955D01*
X155706820Y-86466184D01*
X155572062Y-86355590D01*
X155418316Y-86273412D01*
X155251493Y-86222806D01*
X155121480Y-86210001D01*
X155121472Y-86210001D01*
X155078003Y-86205720D01*
X155034534Y-86210001D01*
X149962999Y-86210001D01*
X149962999Y-86111579D01*
X152111475Y-83963104D01*
X152296967Y-84000000D01*
X152619033Y-84000000D01*
X152934912Y-83937168D01*
X153232463Y-83813918D01*
X153500252Y-83634987D01*
X153727987Y-83407252D01*
X153728000Y-83407233D01*
X153728013Y-83407252D01*
X153955748Y-83634987D01*
X154223537Y-83813918D01*
X154521088Y-83937168D01*
X154836967Y-84000000D01*
X155159033Y-84000000D01*
X155474912Y-83937168D01*
X155772463Y-83813918D01*
X156040252Y-83634987D01*
X156267987Y-83407252D01*
X156268000Y-83407233D01*
X156268013Y-83407252D01*
X156495748Y-83634987D01*
X156763537Y-83813918D01*
X157061088Y-83937168D01*
X157376967Y-84000000D01*
X157699033Y-84000000D01*
X158014912Y-83937168D01*
X158312463Y-83813918D01*
X158580252Y-83634987D01*
X158807987Y-83407252D01*
X158808000Y-83407233D01*
X158808013Y-83407252D01*
X159035748Y-83634987D01*
X159303537Y-83813918D01*
X159601088Y-83937168D01*
X159916967Y-84000000D01*
X160239033Y-84000000D01*
X160554912Y-83937168D01*
X160852463Y-83813918D01*
X161120252Y-83634987D01*
X161347987Y-83407252D01*
X161453059Y-83250000D01*
X162726931Y-83250000D01*
X162770400Y-83254281D01*
X162813869Y-83250000D01*
X162813877Y-83250000D01*
X162943890Y-83237195D01*
X163110713Y-83186589D01*
X163264459Y-83104411D01*
X163399217Y-82993817D01*
X163426934Y-82960044D01*
X169186526Y-77200452D01*
X169418000Y-77223251D01*
X169711777Y-77194316D01*
X169994264Y-77108625D01*
X169998357Y-77106437D01*
X170078000Y-77114281D01*
X170251490Y-77097195D01*
X170418313Y-77046588D01*
X170572059Y-76964410D01*
X170706817Y-76853817D01*
X170817410Y-76719059D01*
X170826867Y-76701366D01*
X170893203Y-76782197D01*
X171121395Y-76969469D01*
X171381737Y-77108625D01*
X171664224Y-77194316D01*
X171958000Y-77223251D01*
X172251777Y-77194316D01*
X172534264Y-77108625D01*
X172794606Y-76969469D01*
X173022797Y-76782197D01*
X173210069Y-76554006D01*
X173228000Y-76520459D01*
X173245931Y-76554006D01*
X173433203Y-76782197D01*
X173661395Y-76969469D01*
X173921737Y-77108625D01*
X174204224Y-77194316D01*
X174498000Y-77223251D01*
X174791777Y-77194316D01*
X175074264Y-77108625D01*
X175334606Y-76969469D01*
X175562797Y-76782197D01*
X175750069Y-76554006D01*
X175889225Y-76293663D01*
X175974916Y-76011176D01*
X175996600Y-75791018D01*
X175996600Y-75338981D01*
X175974916Y-75118823D01*
X175889225Y-74836336D01*
X175750069Y-74575994D01*
X175562797Y-74347803D01*
X175334605Y-74160531D01*
X175074263Y-74021375D01*
X174791776Y-73935684D01*
X174498000Y-73906749D01*
X174204223Y-73935684D01*
X173921736Y-74021375D01*
X173661394Y-74160531D01*
X173433203Y-74347803D01*
X173245931Y-74575995D01*
X173228000Y-74609541D01*
X173210069Y-74575994D01*
X173022797Y-74347803D01*
X172794605Y-74160531D01*
X172534263Y-74021375D01*
X172251776Y-73935684D01*
X171958000Y-73906749D01*
X171664223Y-73935684D01*
X171381736Y-74021375D01*
X171121394Y-74160531D01*
X170893203Y-74347803D01*
X170705931Y-74575995D01*
X170688000Y-74609541D01*
X170670069Y-74575994D01*
X170482797Y-74347803D01*
X170254605Y-74160531D01*
X169994263Y-74021375D01*
X169711776Y-73935684D01*
X169418000Y-73906749D01*
X169124223Y-73935684D01*
X168841736Y-74021375D01*
X168581394Y-74160531D01*
X168353203Y-74347803D01*
X168165931Y-74575995D01*
X168148000Y-74609541D01*
X168130069Y-74575994D01*
X167942797Y-74347803D01*
X167714605Y-74160531D01*
X167454263Y-74021375D01*
X167171776Y-73935684D01*
X166878000Y-73906749D01*
X166584223Y-73935684D01*
X166301736Y-74021375D01*
X166041394Y-74160531D01*
X165813203Y-74347803D01*
X165625931Y-74575995D01*
X165608000Y-74609541D01*
X165590069Y-74575994D01*
X165402797Y-74347803D01*
X165174605Y-74160531D01*
X164914263Y-74021375D01*
X164631776Y-73935684D01*
X164338000Y-73906749D01*
X164044223Y-73935684D01*
X163761736Y-74021375D01*
X163501394Y-74160531D01*
X163273203Y-74347803D01*
X163085931Y-74575995D01*
X163068000Y-74609541D01*
X163050069Y-74575994D01*
X162862797Y-74347803D01*
X162634605Y-74160531D01*
X162374263Y-74021375D01*
X162091776Y-73935684D01*
X161798000Y-73906749D01*
X161504223Y-73935684D01*
X161221736Y-74021375D01*
X160961394Y-74160531D01*
X160733203Y-74347803D01*
X160545931Y-74575995D01*
X160528000Y-74609541D01*
X160510069Y-74575994D01*
X160322797Y-74347803D01*
X160094605Y-74160531D01*
X159834263Y-74021375D01*
X159551776Y-73935684D01*
X159258000Y-73906749D01*
X158964223Y-73935684D01*
X158681736Y-74021375D01*
X158421394Y-74160531D01*
X158193203Y-74347803D01*
X158005931Y-74575995D01*
X157988000Y-74609541D01*
X157970069Y-74575994D01*
X157782797Y-74347803D01*
X157554605Y-74160531D01*
X157294263Y-74021375D01*
X157011776Y-73935684D01*
X156718000Y-73906749D01*
X156424223Y-73935684D01*
X156141736Y-74021375D01*
X155881394Y-74160531D01*
X155653203Y-74347803D01*
X155465931Y-74575995D01*
X155326775Y-74836337D01*
X155241084Y-75118824D01*
X155219400Y-75338982D01*
X155219400Y-75791019D01*
X155241084Y-76011177D01*
X155326775Y-76293664D01*
X155465931Y-76554006D01*
X155653203Y-76782197D01*
X155881395Y-76969469D01*
X156141737Y-77108625D01*
X156424224Y-77194316D01*
X156718000Y-77223251D01*
X157011777Y-77194316D01*
X157294264Y-77108625D01*
X157554606Y-76969469D01*
X157782797Y-76782197D01*
X157970069Y-76554006D01*
X157988000Y-76520459D01*
X158005931Y-76554006D01*
X158193203Y-76782197D01*
X158421395Y-76969469D01*
X158681737Y-77108625D01*
X158964224Y-77194316D01*
X159258000Y-77223251D01*
X159551777Y-77194316D01*
X159834264Y-77108625D01*
X160094606Y-76969469D01*
X160322797Y-76782197D01*
X160510069Y-76554006D01*
X160528000Y-76520459D01*
X160545931Y-76554006D01*
X160733203Y-76782197D01*
X160961395Y-76969469D01*
X161221737Y-77108625D01*
X161504224Y-77194316D01*
X161600066Y-77203756D01*
X161323822Y-77480000D01*
X159041465Y-77480000D01*
X158997999Y-77475719D01*
X158954533Y-77480000D01*
X158954523Y-77480000D01*
X158824510Y-77492805D01*
X158657687Y-77543411D01*
X158503941Y-77625589D01*
X158474452Y-77649790D01*
X158402953Y-77708468D01*
X158402951Y-77708470D01*
X158369183Y-77736183D01*
X158341470Y-77769951D01*
X155344525Y-80766897D01*
X155159033Y-80730000D01*
X154836967Y-80730000D01*
X154521088Y-80792832D01*
X154223537Y-80916082D01*
X153955748Y-81095013D01*
X153728013Y-81322748D01*
X153728000Y-81322767D01*
X153727987Y-81322748D01*
X153500252Y-81095013D01*
X153232463Y-80916082D01*
X152934912Y-80792832D01*
X152619033Y-80730000D01*
X152296967Y-80730000D01*
X151981088Y-80792832D01*
X151683537Y-80916082D01*
X151415748Y-81095013D01*
X151188013Y-81322748D01*
X151115280Y-81431600D01*
X151053413Y-81409192D01*
X150097605Y-82365000D01*
X150111748Y-82379143D01*
X149932143Y-82558748D01*
X149918000Y-82544605D01*
X148962192Y-83500413D01*
X149057956Y-83764814D01*
X149347571Y-83905704D01*
X149599631Y-83971790D01*
X148482955Y-85088467D01*
X148449182Y-85116184D01*
X148338588Y-85250943D01*
X148256410Y-85404689D01*
X148205804Y-85571512D01*
X148192999Y-85701525D01*
X148192999Y-85701532D01*
X148188718Y-85745001D01*
X148192999Y-85788471D01*
X148192999Y-86210001D01*
X138693000Y-86210001D01*
X138693000Y-83740059D01*
X138850252Y-83634987D01*
X139077987Y-83407252D01*
X139256918Y-83139463D01*
X139380168Y-82841912D01*
X139443000Y-82526033D01*
X139443000Y-82427595D01*
X148276282Y-82427595D01*
X148320039Y-82746675D01*
X148425205Y-83051088D01*
X148518186Y-83225044D01*
X148782587Y-83320808D01*
X149738395Y-82365000D01*
X148782587Y-81409192D01*
X148518186Y-81504956D01*
X148377296Y-81794571D01*
X148295616Y-82106108D01*
X148276282Y-82427595D01*
X139443000Y-82427595D01*
X139443000Y-82203967D01*
X139380168Y-81888088D01*
X139343680Y-81799999D01*
X142332932Y-81799999D01*
X142376401Y-81804280D01*
X142419870Y-81799999D01*
X142419878Y-81799999D01*
X142549891Y-81787194D01*
X142716714Y-81736588D01*
X142870460Y-81654410D01*
X143005218Y-81543816D01*
X143032935Y-81510043D01*
X143313391Y-81229587D01*
X148962192Y-81229587D01*
X149918000Y-82185395D01*
X150873808Y-81229587D01*
X150778044Y-80965186D01*
X150488429Y-80824296D01*
X150176892Y-80742616D01*
X149855405Y-80723282D01*
X149536325Y-80767039D01*
X149231912Y-80872205D01*
X149057956Y-80965186D01*
X148962192Y-81229587D01*
X143313391Y-81229587D01*
X147342526Y-77200452D01*
X147574000Y-77223251D01*
X147867777Y-77194316D01*
X148150264Y-77108625D01*
X148410606Y-76969469D01*
X148638797Y-76782197D01*
X148826069Y-76554006D01*
X148844000Y-76520459D01*
X148861931Y-76554006D01*
X149049203Y-76782197D01*
X149277395Y-76969469D01*
X149537737Y-77108625D01*
X149820224Y-77194316D01*
X150114000Y-77223251D01*
X150407777Y-77194316D01*
X150690264Y-77108625D01*
X150950606Y-76969469D01*
X151178797Y-76782197D01*
X151366069Y-76554006D01*
X151384000Y-76520459D01*
X151401931Y-76554006D01*
X151589203Y-76782197D01*
X151817395Y-76969469D01*
X152077737Y-77108625D01*
X152360224Y-77194316D01*
X152654000Y-77223251D01*
X152947777Y-77194316D01*
X153230264Y-77108625D01*
X153490606Y-76969469D01*
X153718797Y-76782197D01*
X153906069Y-76554006D01*
X154045225Y-76293663D01*
X154130916Y-76011176D01*
X154152600Y-75791018D01*
X154152600Y-75338981D01*
X154130916Y-75118823D01*
X154045225Y-74836336D01*
X153906069Y-74575994D01*
X153718797Y-74347803D01*
X153490605Y-74160531D01*
X153230263Y-74021375D01*
X152947776Y-73935684D01*
X152654000Y-73906749D01*
X152360223Y-73935684D01*
X152077736Y-74021375D01*
X151817394Y-74160531D01*
X151589203Y-74347803D01*
X151401931Y-74575995D01*
X151384000Y-74609541D01*
X151366069Y-74575994D01*
X151178797Y-74347803D01*
X150950605Y-74160531D01*
X150690263Y-74021375D01*
X150407776Y-73935684D01*
X150114000Y-73906749D01*
X149820223Y-73935684D01*
X149537736Y-74021375D01*
X149277394Y-74160531D01*
X149049203Y-74347803D01*
X148861931Y-74575995D01*
X148844000Y-74609541D01*
X148826069Y-74575994D01*
X148638797Y-74347803D01*
X148410605Y-74160531D01*
X148150263Y-74021375D01*
X147867776Y-73935684D01*
X147574000Y-73906749D01*
X147280223Y-73935684D01*
X146997736Y-74021375D01*
X146737394Y-74160531D01*
X146509203Y-74347803D01*
X146321931Y-74575995D01*
X146304000Y-74609541D01*
X146286069Y-74575994D01*
X146098797Y-74347803D01*
X145870605Y-74160531D01*
X145610263Y-74021375D01*
X145327776Y-73935684D01*
X145034000Y-73906749D01*
X144740223Y-73935684D01*
X144457736Y-74021375D01*
X144197394Y-74160531D01*
X143969203Y-74347803D01*
X143781931Y-74575995D01*
X143764000Y-74609541D01*
X143746069Y-74575994D01*
X143558797Y-74347803D01*
X143330605Y-74160531D01*
X143070263Y-74021375D01*
X142787776Y-73935684D01*
X142494000Y-73906749D01*
X142200223Y-73935684D01*
X141917736Y-74021375D01*
X141657394Y-74160531D01*
X141429203Y-74347803D01*
X141241931Y-74575995D01*
X141224000Y-74609541D01*
X141206069Y-74575994D01*
X141018797Y-74347803D01*
X140790605Y-74160531D01*
X140530263Y-74021375D01*
X140247776Y-73935684D01*
X139954000Y-73906749D01*
X139660223Y-73935684D01*
X139377736Y-74021375D01*
X139117394Y-74160531D01*
X138889203Y-74347803D01*
X138701931Y-74575995D01*
X138680576Y-74615947D01*
X138532486Y-74413271D01*
X138316035Y-74214267D01*
X138064919Y-74061314D01*
X137788789Y-73960291D01*
X137773026Y-73957642D01*
X137541000Y-74078783D01*
X137541000Y-75438000D01*
X137561000Y-75438000D01*
X137561000Y-75692000D01*
X137541000Y-75692000D01*
X137541000Y-77051217D01*
X137773026Y-77172358D01*
X137788789Y-77169709D01*
X138064919Y-77068686D01*
X138316035Y-76915733D01*
X138532486Y-76716729D01*
X138680576Y-76514053D01*
X138701931Y-76554006D01*
X138889203Y-76782197D01*
X139117395Y-76969469D01*
X139377737Y-77108625D01*
X139660224Y-77194316D01*
X139954000Y-77223251D01*
X140247777Y-77194316D01*
X140530264Y-77108625D01*
X140790606Y-76969469D01*
X141018797Y-76782197D01*
X141206069Y-76554006D01*
X141224000Y-76520459D01*
X141241931Y-76554006D01*
X141429203Y-76782197D01*
X141657395Y-76969469D01*
X141917737Y-77108625D01*
X142200224Y-77194316D01*
X142296066Y-77203756D01*
X140169834Y-79329988D01*
X132381477Y-79329988D01*
X132338011Y-79325707D01*
X132294545Y-79329988D01*
X132294535Y-79329988D01*
X132164522Y-79342793D01*
X131997699Y-79393399D01*
X131843953Y-79475577D01*
X131843951Y-79475578D01*
X131843952Y-79475578D01*
X131742965Y-79558456D01*
X131742963Y-79558458D01*
X131709195Y-79586171D01*
X131681482Y-79619939D01*
X130534525Y-80766897D01*
X130349033Y-80730000D01*
X130026967Y-80730000D01*
X129711088Y-80792832D01*
X129413537Y-80916082D01*
X129145748Y-81095013D01*
X128918013Y-81322748D01*
X128739082Y-81590537D01*
X128615832Y-81888088D01*
X128553000Y-82203967D01*
X128553000Y-82526033D01*
X128615832Y-82841912D01*
X128739082Y-83139463D01*
X128918013Y-83407252D01*
X129145748Y-83634987D01*
X129413537Y-83813918D01*
X129711088Y-83937168D01*
X130026967Y-84000000D01*
X130349033Y-84000000D01*
X130664912Y-83937168D01*
X130962463Y-83813918D01*
X131230252Y-83634987D01*
X131457987Y-83407252D01*
X131458000Y-83407233D01*
X131458013Y-83407252D01*
X131685748Y-83634987D01*
X131953537Y-83813918D01*
X132251088Y-83937168D01*
X132566967Y-84000000D01*
X132889033Y-84000000D01*
X133204912Y-83937168D01*
X133502463Y-83813918D01*
X133770252Y-83634987D01*
X133904826Y-83500413D01*
X134312192Y-83500413D01*
X134407956Y-83764814D01*
X134697571Y-83905704D01*
X135009108Y-83987384D01*
X135330595Y-84006718D01*
X135649675Y-83962961D01*
X135954088Y-83857795D01*
X136128044Y-83764814D01*
X136223808Y-83500413D01*
X135268000Y-82544605D01*
X134312192Y-83500413D01*
X133904826Y-83500413D01*
X133997987Y-83407252D01*
X134070720Y-83298400D01*
X134132587Y-83320808D01*
X135088395Y-82365000D01*
X135074253Y-82350858D01*
X135253858Y-82171253D01*
X135268000Y-82185395D01*
X135282143Y-82171253D01*
X135461748Y-82350858D01*
X135447605Y-82365000D01*
X136403413Y-83320808D01*
X136465280Y-83298400D01*
X136538013Y-83407252D01*
X136765748Y-83634987D01*
X136923000Y-83740060D01*
X136923001Y-86210001D01*
X116041464Y-86210001D01*
X115997998Y-86205720D01*
X115954532Y-86210001D01*
X115954522Y-86210001D01*
X115824509Y-86222806D01*
X115657686Y-86273412D01*
X115503940Y-86355590D01*
X115503938Y-86355591D01*
X115503939Y-86355591D01*
X115402952Y-86438469D01*
X115402950Y-86438471D01*
X115369182Y-86466184D01*
X115344054Y-86496803D01*
X115159033Y-86460000D01*
X114836967Y-86460000D01*
X114521088Y-86522832D01*
X114223537Y-86646082D01*
X113955748Y-86825013D01*
X113728013Y-87052748D01*
X113549082Y-87320537D01*
X113425832Y-87618088D01*
X113363000Y-87933967D01*
X113363000Y-88256033D01*
X113399897Y-88441525D01*
X112952955Y-88888467D01*
X112919182Y-88916184D01*
X112808588Y-89050943D01*
X112726410Y-89204689D01*
X112675804Y-89371512D01*
X112662999Y-89501525D01*
X112662999Y-89501532D01*
X112658718Y-89545001D01*
X111708000Y-89545001D01*
X111708000Y-73735000D01*
X124296293Y-73735000D01*
X124166406Y-73864887D01*
G36*
X135185832Y-101078088D02*
G01*
X135123000Y-101393967D01*
X135123000Y-101716033D01*
X135185832Y-102031912D01*
X135309082Y-102329463D01*
X135488013Y-102597252D01*
X135715748Y-102824987D01*
X135715767Y-102825000D01*
X135715748Y-102825013D01*
X135488013Y-103052748D01*
X135309082Y-103320537D01*
X135185832Y-103618088D01*
X135123000Y-103933967D01*
X135123000Y-104256033D01*
X135159897Y-104441525D01*
X134602953Y-104998469D01*
X134569185Y-105026182D01*
X134541472Y-105059950D01*
X134541469Y-105059953D01*
X134458591Y-105160940D01*
X134376413Y-105314686D01*
X134325806Y-105481509D01*
X134308720Y-105654999D01*
X134313002Y-105698478D01*
X134313001Y-113521532D01*
X134308720Y-113565001D01*
X134313001Y-113608470D01*
X134313001Y-113608477D01*
X134325806Y-113738490D01*
X134376412Y-113905313D01*
X134458590Y-114059059D01*
X134568985Y-114193576D01*
X134563000Y-114223665D01*
X134563000Y-114506335D01*
X134569983Y-114541439D01*
X134381421Y-114730001D01*
X129885063Y-114730001D01*
X129889904Y-114714039D01*
X129767915Y-114492000D01*
X128625000Y-114492000D01*
X128625000Y-114512000D01*
X128371000Y-114512000D01*
X128371000Y-114492000D01*
X127228085Y-114492000D01*
X127106096Y-114714039D01*
X127110937Y-114730001D01*
X118264578Y-114730001D01*
X117550538Y-114015961D01*
X127106096Y-114015961D01*
X127228085Y-114238000D01*
X128371000Y-114238000D01*
X128371000Y-113094376D01*
X128625000Y-113094376D01*
X128625000Y-114238000D01*
X129767915Y-114238000D01*
X129889904Y-114015961D01*
X129849246Y-113881913D01*
X129729037Y-113627580D01*
X129561519Y-113401586D01*
X129353131Y-113212615D01*
X129111881Y-113067930D01*
X128847040Y-112973091D01*
X128625000Y-113094376D01*
X128371000Y-113094376D01*
X128148960Y-112973091D01*
X127884119Y-113067930D01*
X127642869Y-113212615D01*
X127434481Y-113401586D01*
X127266963Y-113627580D01*
X127146754Y-113881913D01*
X127106096Y-114015961D01*
X117550538Y-114015961D01*
X115664251Y-112129675D01*
X115735420Y-112096037D01*
X115961414Y-111928519D01*
X116150385Y-111720131D01*
X116295070Y-111478881D01*
X116389909Y-111214040D01*
X116268624Y-110992000D01*
X115125000Y-110992000D01*
X115125000Y-111012000D01*
X114871000Y-111012000D01*
X114871000Y-110992000D01*
X114851000Y-110992000D01*
X114851000Y-110738000D01*
X114871000Y-110738000D01*
X114871000Y-109595085D01*
X115125000Y-109595085D01*
X115125000Y-110738000D01*
X116268624Y-110738000D01*
X116389909Y-110515960D01*
X116295070Y-110251119D01*
X116150385Y-110009869D01*
X115961414Y-109801481D01*
X115930182Y-109778330D01*
X119705278Y-109778330D01*
X119795147Y-110024123D01*
X119931241Y-110247660D01*
X120108330Y-110440351D01*
X120319608Y-110594792D01*
X120556956Y-110705047D01*
X120664671Y-110737716D01*
X120871000Y-110614374D01*
X120871000Y-109572000D01*
X121125000Y-109572000D01*
X121125000Y-110614374D01*
X121331329Y-110737716D01*
X121439044Y-110705047D01*
X121676392Y-110594792D01*
X121887670Y-110440351D01*
X122007087Y-110310413D01*
X128282192Y-110310413D01*
X128377956Y-110574814D01*
X128667571Y-110715704D01*
X128979108Y-110797384D01*
X129300595Y-110816718D01*
X129619675Y-110772961D01*
X129924088Y-110667795D01*
X130098044Y-110574814D01*
X130193808Y-110310413D01*
X129238000Y-109354605D01*
X128282192Y-110310413D01*
X122007087Y-110310413D01*
X122064759Y-110247660D01*
X122200853Y-110024123D01*
X122290722Y-109778330D01*
X122168201Y-109572000D01*
X121125000Y-109572000D01*
X120871000Y-109572000D01*
X119827799Y-109572000D01*
X119705278Y-109778330D01*
X115930182Y-109778330D01*
X115735420Y-109633963D01*
X115481087Y-109513754D01*
X115347039Y-109473096D01*
X115125000Y-109595085D01*
X114871000Y-109595085D01*
X114648961Y-109473096D01*
X114514913Y-109513754D01*
X114432999Y-109552470D01*
X114432999Y-109111670D01*
X119705278Y-109111670D01*
X119827799Y-109318000D01*
X120871000Y-109318000D01*
X120871000Y-108275626D01*
X121125000Y-108275626D01*
X121125000Y-109318000D01*
X122168201Y-109318000D01*
X122215946Y-109237595D01*
X127596282Y-109237595D01*
X127640039Y-109556675D01*
X127745205Y-109861088D01*
X127838186Y-110035044D01*
X128102587Y-110130808D01*
X129058395Y-109175000D01*
X129417605Y-109175000D01*
X130373413Y-110130808D01*
X130637814Y-110035044D01*
X130778704Y-109745429D01*
X130860384Y-109433892D01*
X130879718Y-109112405D01*
X130835961Y-108793325D01*
X130730795Y-108488912D01*
X130637814Y-108314956D01*
X130373413Y-108219192D01*
X129417605Y-109175000D01*
X129058395Y-109175000D01*
X128102587Y-108219192D01*
X127838186Y-108314956D01*
X127697296Y-108604571D01*
X127615616Y-108916108D01*
X127596282Y-109237595D01*
X122215946Y-109237595D01*
X122290722Y-109111670D01*
X122200853Y-108865877D01*
X122064759Y-108642340D01*
X121887670Y-108449649D01*
X121676392Y-108295208D01*
X121439044Y-108184953D01*
X121331329Y-108152284D01*
X121125000Y-108275626D01*
X120871000Y-108275626D01*
X120664671Y-108152284D01*
X120556956Y-108184953D01*
X120319608Y-108295208D01*
X120108330Y-108449649D01*
X119931241Y-108642340D01*
X119795147Y-108865877D01*
X119705278Y-109111670D01*
X114432999Y-109111670D01*
X114432999Y-104684201D01*
X114579426Y-104744853D01*
X114856665Y-104800000D01*
X115139335Y-104800000D01*
X115416574Y-104744853D01*
X115677727Y-104636680D01*
X115912759Y-104479637D01*
X116112637Y-104279759D01*
X116132521Y-104250000D01*
X119631422Y-104250000D01*
X119663000Y-104281578D01*
X119663000Y-104496486D01*
X119714304Y-104754405D01*
X119814939Y-104997359D01*
X119961038Y-105216013D01*
X120146987Y-105401962D01*
X120365641Y-105548061D01*
X120608595Y-105648696D01*
X120866514Y-105700000D01*
X121129486Y-105700000D01*
X121387405Y-105648696D01*
X121630359Y-105548061D01*
X121849013Y-105401962D01*
X122000975Y-105250000D01*
X126601422Y-105250000D01*
X127639896Y-106288475D01*
X127603000Y-106473967D01*
X127603000Y-106796033D01*
X127665832Y-107111912D01*
X127789082Y-107409463D01*
X127968013Y-107677252D01*
X128195748Y-107904987D01*
X128304600Y-107977720D01*
X128282192Y-108039587D01*
X129238000Y-108995395D01*
X130193808Y-108039587D01*
X130171400Y-107977720D01*
X130280252Y-107904987D01*
X130507987Y-107677252D01*
X130686918Y-107409463D01*
X130810168Y-107111912D01*
X130873000Y-106796033D01*
X130873000Y-106473967D01*
X130810168Y-106158088D01*
X130686918Y-105860537D01*
X130507987Y-105592748D01*
X130280252Y-105365013D01*
X130280233Y-105365000D01*
X130280252Y-105364987D01*
X130507987Y-105137252D01*
X130612793Y-104980399D01*
X130652213Y-104984281D01*
X130695682Y-104980000D01*
X130695690Y-104980000D01*
X130825703Y-104967195D01*
X130992526Y-104916589D01*
X131146272Y-104834411D01*
X131281030Y-104723817D01*
X131308747Y-104690044D01*
X135008793Y-100989999D01*
X135222320Y-100989999D01*
X135185832Y-101078088D01*
X135185832Y-101078088D01*
G37*
X135185832Y-101078088D02*
X135123000Y-101393967D01*
X135123000Y-101716033D01*
X135185832Y-102031912D01*
X135309082Y-102329463D01*
X135488013Y-102597252D01*
X135715748Y-102824987D01*
X135715767Y-102825000D01*
X135715748Y-102825013D01*
X135488013Y-103052748D01*
X135309082Y-103320537D01*
X135185832Y-103618088D01*
X135123000Y-103933967D01*
X135123000Y-104256033D01*
X135159897Y-104441525D01*
X134602953Y-104998469D01*
X134569185Y-105026182D01*
X134541472Y-105059950D01*
X134541469Y-105059953D01*
X134458591Y-105160940D01*
X134376413Y-105314686D01*
X134325806Y-105481509D01*
X134308720Y-105654999D01*
X134313002Y-105698478D01*
X134313001Y-113521532D01*
X134308720Y-113565001D01*
X134313001Y-113608470D01*
X134313001Y-113608477D01*
X134325806Y-113738490D01*
X134376412Y-113905313D01*
X134458590Y-114059059D01*
X134568985Y-114193576D01*
X134563000Y-114223665D01*
X134563000Y-114506335D01*
X134569983Y-114541439D01*
X134381421Y-114730001D01*
X129885063Y-114730001D01*
X129889904Y-114714039D01*
X129767915Y-114492000D01*
X128625000Y-114492000D01*
X128625000Y-114512000D01*
X128371000Y-114512000D01*
X128371000Y-114492000D01*
X127228085Y-114492000D01*
X127106096Y-114714039D01*
X127110937Y-114730001D01*
X118264578Y-114730001D01*
X117550538Y-114015961D01*
X127106096Y-114015961D01*
X127228085Y-114238000D01*
X128371000Y-114238000D01*
X128371000Y-113094376D01*
X128625000Y-113094376D01*
X128625000Y-114238000D01*
X129767915Y-114238000D01*
X129889904Y-114015961D01*
X129849246Y-113881913D01*
X129729037Y-113627580D01*
X129561519Y-113401586D01*
X129353131Y-113212615D01*
X129111881Y-113067930D01*
X128847040Y-112973091D01*
X128625000Y-113094376D01*
X128371000Y-113094376D01*
X128148960Y-112973091D01*
X127884119Y-113067930D01*
X127642869Y-113212615D01*
X127434481Y-113401586D01*
X127266963Y-113627580D01*
X127146754Y-113881913D01*
X127106096Y-114015961D01*
X117550538Y-114015961D01*
X115664251Y-112129675D01*
X115735420Y-112096037D01*
X115961414Y-111928519D01*
X116150385Y-111720131D01*
X116295070Y-111478881D01*
X116389909Y-111214040D01*
X116268624Y-110992000D01*
X115125000Y-110992000D01*
X115125000Y-111012000D01*
X114871000Y-111012000D01*
X114871000Y-110992000D01*
X114851000Y-110992000D01*
X114851000Y-110738000D01*
X114871000Y-110738000D01*
X114871000Y-109595085D01*
X115125000Y-109595085D01*
X115125000Y-110738000D01*
X116268624Y-110738000D01*
X116389909Y-110515960D01*
X116295070Y-110251119D01*
X116150385Y-110009869D01*
X115961414Y-109801481D01*
X115930182Y-109778330D01*
X119705278Y-109778330D01*
X119795147Y-110024123D01*
X119931241Y-110247660D01*
X120108330Y-110440351D01*
X120319608Y-110594792D01*
X120556956Y-110705047D01*
X120664671Y-110737716D01*
X120871000Y-110614374D01*
X120871000Y-109572000D01*
X121125000Y-109572000D01*
X121125000Y-110614374D01*
X121331329Y-110737716D01*
X121439044Y-110705047D01*
X121676392Y-110594792D01*
X121887670Y-110440351D01*
X122007087Y-110310413D01*
X128282192Y-110310413D01*
X128377956Y-110574814D01*
X128667571Y-110715704D01*
X128979108Y-110797384D01*
X129300595Y-110816718D01*
X129619675Y-110772961D01*
X129924088Y-110667795D01*
X130098044Y-110574814D01*
X130193808Y-110310413D01*
X129238000Y-109354605D01*
X128282192Y-110310413D01*
X122007087Y-110310413D01*
X122064759Y-110247660D01*
X122200853Y-110024123D01*
X122290722Y-109778330D01*
X122168201Y-109572000D01*
X121125000Y-109572000D01*
X120871000Y-109572000D01*
X119827799Y-109572000D01*
X119705278Y-109778330D01*
X115930182Y-109778330D01*
X115735420Y-109633963D01*
X115481087Y-109513754D01*
X115347039Y-109473096D01*
X115125000Y-109595085D01*
X114871000Y-109595085D01*
X114648961Y-109473096D01*
X114514913Y-109513754D01*
X114432999Y-109552470D01*
X114432999Y-109111670D01*
X119705278Y-109111670D01*
X119827799Y-109318000D01*
X120871000Y-109318000D01*
X120871000Y-108275626D01*
X121125000Y-108275626D01*
X121125000Y-109318000D01*
X122168201Y-109318000D01*
X122215946Y-109237595D01*
X127596282Y-109237595D01*
X127640039Y-109556675D01*
X127745205Y-109861088D01*
X127838186Y-110035044D01*
X128102587Y-110130808D01*
X129058395Y-109175000D01*
X129417605Y-109175000D01*
X130373413Y-110130808D01*
X130637814Y-110035044D01*
X130778704Y-109745429D01*
X130860384Y-109433892D01*
X130879718Y-109112405D01*
X130835961Y-108793325D01*
X130730795Y-108488912D01*
X130637814Y-108314956D01*
X130373413Y-108219192D01*
X129417605Y-109175000D01*
X129058395Y-109175000D01*
X128102587Y-108219192D01*
X127838186Y-108314956D01*
X127697296Y-108604571D01*
X127615616Y-108916108D01*
X127596282Y-109237595D01*
X122215946Y-109237595D01*
X122290722Y-109111670D01*
X122200853Y-108865877D01*
X122064759Y-108642340D01*
X121887670Y-108449649D01*
X121676392Y-108295208D01*
X121439044Y-108184953D01*
X121331329Y-108152284D01*
X121125000Y-108275626D01*
X120871000Y-108275626D01*
X120664671Y-108152284D01*
X120556956Y-108184953D01*
X120319608Y-108295208D01*
X120108330Y-108449649D01*
X119931241Y-108642340D01*
X119795147Y-108865877D01*
X119705278Y-109111670D01*
X114432999Y-109111670D01*
X114432999Y-104684201D01*
X114579426Y-104744853D01*
X114856665Y-104800000D01*
X115139335Y-104800000D01*
X115416574Y-104744853D01*
X115677727Y-104636680D01*
X115912759Y-104479637D01*
X116112637Y-104279759D01*
X116132521Y-104250000D01*
X119631422Y-104250000D01*
X119663000Y-104281578D01*
X119663000Y-104496486D01*
X119714304Y-104754405D01*
X119814939Y-104997359D01*
X119961038Y-105216013D01*
X120146987Y-105401962D01*
X120365641Y-105548061D01*
X120608595Y-105648696D01*
X120866514Y-105700000D01*
X121129486Y-105700000D01*
X121387405Y-105648696D01*
X121630359Y-105548061D01*
X121849013Y-105401962D01*
X122000975Y-105250000D01*
X126601422Y-105250000D01*
X127639896Y-106288475D01*
X127603000Y-106473967D01*
X127603000Y-106796033D01*
X127665832Y-107111912D01*
X127789082Y-107409463D01*
X127968013Y-107677252D01*
X128195748Y-107904987D01*
X128304600Y-107977720D01*
X128282192Y-108039587D01*
X129238000Y-108995395D01*
X130193808Y-108039587D01*
X130171400Y-107977720D01*
X130280252Y-107904987D01*
X130507987Y-107677252D01*
X130686918Y-107409463D01*
X130810168Y-107111912D01*
X130873000Y-106796033D01*
X130873000Y-106473967D01*
X130810168Y-106158088D01*
X130686918Y-105860537D01*
X130507987Y-105592748D01*
X130280252Y-105365013D01*
X130280233Y-105365000D01*
X130280252Y-105364987D01*
X130507987Y-105137252D01*
X130612793Y-104980399D01*
X130652213Y-104984281D01*
X130695682Y-104980000D01*
X130695690Y-104980000D01*
X130825703Y-104967195D01*
X130992526Y-104916589D01*
X131146272Y-104834411D01*
X131281030Y-104723817D01*
X131308747Y-104690044D01*
X135008793Y-100989999D01*
X135222320Y-100989999D01*
X135185832Y-101078088D01*
M02*
